<svg xmlns="http://www.w3.org/2000/svg" xmlns:xlink="http://www.w3.org/1999/xlink" width="940" zoomAndPan="magnify" viewBox="0 0 705 187.499995" height="250" preserveAspectRatio="xMidYMid meet" version="1.0"><defs><g/><clipPath id="c5e70fae92"><path d="M 30 20 L 669 20 L 669 170 L 30 170 Z M 30 20 " clip-rule="nonzero"/></clipPath><clipPath id="e161eaaddc"><path d="M 30.335938 19.285156 L 669.609375 22.589844 L 668.847656 169.9375 L 29.574219 166.628906 Z M 30.335938 19.285156 " clip-rule="nonzero"/></clipPath><clipPath id="fb673a0306"><path d="M 595 169.164062 L 103.25 166.617188 C 62.773438 166.410156 30.140625 133.425781 30.347656 92.957031 C 30.558594 52.480469 63.53125 19.847656 104.007812 20.058594 L 595.757812 22.601562 C 636.226562 22.8125 668.871094 55.785156 668.660156 96.261719 C 668.453125 136.730469 635.46875 169.371094 595 169.164062 Z M 595 169.164062 " clip-rule="nonzero"/></clipPath><clipPath id="4fc06e1139"><path d="M 0 0 L 638.996094 0 L 638.996094 149.46875 L 0 149.46875 Z M 0 0 " clip-rule="nonzero"/></clipPath><clipPath id="cf87edd2bf"><path d="M 0.335938 -0.714844 L 639.609375 2.589844 L 638.847656 149.9375 L -0.425781 146.628906 Z M 0.335938 -0.714844 " clip-rule="nonzero"/></clipPath><clipPath id="47a52721ae"><path d="M 565 149.164062 L 73.25 146.617188 C 32.773438 146.410156 0.140625 113.425781 0.347656 72.957031 C 0.558594 32.480469 33.53125 -0.152344 74.007812 0.0585938 L 565.757812 2.601562 C 606.226562 2.8125 638.871094 35.785156 638.660156 76.261719 C 638.453125 116.730469 605.46875 149.371094 565 149.164062 Z M 565 149.164062 " clip-rule="nonzero"/></clipPath><clipPath id="f8354d21b4"><rect x="0" width="639" y="0" height="150"/></clipPath><clipPath id="ac0daea252"><path d="M 29 19 L 670 19 L 670 171 L 29 171 Z M 29 19 " clip-rule="nonzero"/></clipPath><clipPath id="5cc61a2169"><path d="M 29.761719 18.699219 L 670.191406 22.015625 L 669.421875 170.519531 L 28.992188 167.207031 Z M 29.761719 18.699219 " clip-rule="nonzero"/></clipPath><clipPath id="d48466dba2"><path d="M 595.765625 21.628906 L 104.015625 19.085938 C 63.070312 18.871094 29.589844 52.007812 29.375 92.953125 C 29.164062 133.898438 62.300781 167.378906 103.246094 167.589844 L 594.996094 170.136719 C 635.941406 170.347656 669.421875 137.210938 669.632812 96.265625 C 669.84375 55.324219 636.707031 21.839844 595.765625 21.628906 Z M 595.007812 168.191406 L 103.253906 165.644531 C 63.382812 165.4375 31.113281 132.835938 31.320312 92.964844 C 31.527344 53.089844 64.128906 20.824219 104.003906 21.03125 L 595.753906 23.574219 C 635.628906 23.78125 667.894531 56.382812 667.6875 96.257812 C 667.480469 136.128906 634.878906 168.394531 595.007812 168.191406 Z M 595.007812 168.191406 " clip-rule="nonzero"/></clipPath><clipPath id="890cfb05d8"><path d="M 0 0 L 640.953125 0 L 640.953125 151.425781 L 0 151.425781 Z M 0 0 " clip-rule="nonzero"/></clipPath><clipPath id="657e37921b"><path d="M 0.761719 -0.300781 L 641.191406 3.015625 L 640.421875 151.519531 L -0.0078125 148.207031 Z M 0.761719 -0.300781 " clip-rule="nonzero"/></clipPath><clipPath id="1bf57175fe"><path d="M 566.765625 2.628906 L 75.015625 0.0859375 C 34.070312 -0.128906 0.589844 33.007812 0.375 73.953125 C 0.164062 114.898438 33.300781 148.378906 74.246094 148.589844 L 565.996094 151.136719 C 606.941406 151.347656 640.421875 118.210938 640.632812 77.265625 C 640.84375 36.324219 607.707031 2.839844 566.765625 2.628906 Z M 566.007812 149.191406 L 74.253906 146.644531 C 34.382812 146.4375 2.113281 113.835938 2.320312 73.964844 C 2.527344 34.089844 35.128906 1.824219 75.003906 2.03125 L 566.753906 4.574219 C 606.628906 4.78125 638.894531 37.382812 638.6875 77.257812 C 638.480469 117.128906 605.878906 149.394531 566.007812 149.191406 Z M 566.007812 149.191406 " clip-rule="nonzero"/></clipPath><clipPath id="43c0128470"><rect x="0" width="641" y="0" height="152"/></clipPath><clipPath id="36fbe02738"><path d="M 0.332031 0.914062 L 399.109375 0.914062 L 399.109375 56 L 0.332031 56 Z M 0.332031 0.914062 " clip-rule="nonzero"/></clipPath><clipPath id="7a5767bfb2"><rect x="0" width="400" y="0" height="56"/></clipPath><clipPath id="21403fbd37"><path d="M 31 71 L 368 71 L 368 96.660156 L 31 96.660156 Z M 31 71 " clip-rule="nonzero"/></clipPath><clipPath id="5646bad033"><rect x="0" width="337" y="0" height="26"/></clipPath><clipPath id="a7e985569e"><rect x="0" width="400" y="0" height="97"/></clipPath><clipPath id="c998602e04"><path d="M 13 27 L 149 27 L 149 160 L 13 160 Z M 13 27 " clip-rule="nonzero"/></clipPath><clipPath id="cbaae26e1e"><path d="M 5.058594 30.03125 L 148.035156 16.480469 L 160.945312 152.757812 L 17.96875 166.304688 Z M 5.058594 30.03125 " clip-rule="nonzero"/></clipPath><clipPath id="939748e52c"><path d="M 5.058594 30.03125 L 148.035156 16.480469 L 160.945312 152.757812 L 17.96875 166.304688 Z M 5.058594 30.03125 " clip-rule="nonzero"/></clipPath><clipPath id="180aff916a"><path d="M 48 61 L 118 61 L 118 127 L 48 127 Z M 48 61 " clip-rule="nonzero"/></clipPath><clipPath id="1d410387b5"><path d="M 5.058594 30.03125 L 148.035156 16.480469 L 160.945312 152.757812 L 17.96875 166.304688 Z M 5.058594 30.03125 " clip-rule="nonzero"/></clipPath><clipPath id="2f7be13294"><path d="M 5.058594 30.03125 L 148.035156 16.480469 L 160.945312 152.757812 L 17.96875 166.304688 Z M 5.058594 30.03125 " clip-rule="nonzero"/></clipPath><clipPath id="dca30036a8"><path d="M 48 90 L 118 90 L 118 120 L 48 120 Z M 48 90 " clip-rule="nonzero"/></clipPath><clipPath id="ea26d963bf"><path d="M 5.058594 30.03125 L 148.035156 16.480469 L 160.945312 152.757812 L 17.96875 166.304688 Z M 5.058594 30.03125 " clip-rule="nonzero"/></clipPath><clipPath id="6187f56c2e"><path d="M 5.058594 30.03125 L 148.035156 16.480469 L 160.945312 152.757812 L 17.96875 166.304688 Z M 5.058594 30.03125 " clip-rule="nonzero"/></clipPath><clipPath id="9f56edb6f5"><path d="M 10 23 L 153 23 L 153 162 L 10 162 Z M 10 23 " clip-rule="nonzero"/></clipPath><clipPath id="df7edf949d"><path d="M 5.058594 30.03125 L 148.035156 16.480469 L 160.945312 152.757812 L 17.96875 166.304688 Z M 5.058594 30.03125 " clip-rule="nonzero"/></clipPath><clipPath id="fe76254ff0"><path d="M 5.058594 30.03125 L 148.035156 16.480469 L 160.945312 152.757812 L 17.96875 166.304688 Z M 5.058594 30.03125 " clip-rule="nonzero"/></clipPath></defs><g clip-path="url(#c5e70fae92)"><g clip-path="url(#e161eaaddc)"><g clip-path="url(#fb673a0306)"><g transform="matrix(1, 0, 0, 1, 30, 20)"><g clip-path="url(#f8354d21b4)"><g clip-path="url(#4fc06e1139)"><g clip-path="url(#cf87edd2bf)"><g clip-path="url(#47a52721ae)"><path fill="#ffbd59" d="M -0.238281 -1.300781 L 640.191406 2.015625 L 639.421875 150.519531 L -1.007812 147.207031 Z M -0.238281 -1.300781 " fill-opacity="1" fill-rule="nonzero"/></g></g></g></g></g></g></g></g><g clip-path="url(#ac0daea252)"><g clip-path="url(#5cc61a2169)"><g clip-path="url(#d48466dba2)"><g transform="matrix(1, 0, 0, 1, 29, 19)"><g clip-path="url(#43c0128470)"><g clip-path="url(#890cfb05d8)"><g clip-path="url(#657e37921b)"><g clip-path="url(#1bf57175fe)"><path fill="#000000" d="M 0.761719 -0.300781 L 641.191406 3.015625 L 640.421875 151.519531 L -0.0078125 148.207031 Z M 0.761719 -0.300781 " fill-opacity="1" fill-rule="nonzero"/></g></g></g></g></g></g></g></g><g transform="matrix(1, 0, 0, 1, 183, 46)"><g clip-path="url(#a7e985569e)"><g clip-path="url(#36fbe02738)"><g transform="matrix(1, 0, 0, 1, -0.000000000000056843, -0.000000000000007105)"><g clip-path="url(#7a5767bfb2)"><g fill="#000000" fill-opacity="1"><g transform="translate(0.959103, 45.109792)"><g><path d="M 10.828125 0 L 3.171875 0 L 3.171875 -32.78125 L 10.828125 -32.78125 Z M 10.828125 0 "/></g></g></g><g fill="#000000" fill-opacity="1"><g transform="translate(14.882106, 45.109792)"><g><path d="M 8.796875 -20.8125 C 9.242188 -21.226562 9.707031 -21.613281 10.1875 -21.96875 C 10.664062 -22.332031 11.179688 -22.640625 11.734375 -22.890625 C 12.285156 -23.140625 12.878906 -23.332031 13.515625 -23.46875 C 14.148438 -23.613281 14.84375 -23.6875 15.59375 -23.6875 C 16.863281 -23.6875 17.988281 -23.460938 18.96875 -23.015625 C 19.957031 -22.578125 20.789062 -21.960938 21.46875 -21.171875 C 22.144531 -20.390625 22.65625 -19.453125 23 -18.359375 C 23.34375 -17.273438 23.515625 -16.097656 23.515625 -14.828125 L 23.515625 0 L 16.53125 0 L 16.53125 -14.828125 C 16.53125 -15.960938 16.269531 -16.847656 15.75 -17.484375 C 15.226562 -18.128906 14.457031 -18.453125 13.4375 -18.453125 C 12.664062 -18.453125 11.945312 -18.289062 11.28125 -17.96875 C 10.613281 -17.644531 9.96875 -17.207031 9.34375 -16.65625 L 9.34375 0 L 2.359375 0 L 2.359375 -23.328125 L 6.6875 -23.328125 C 7.550781 -23.328125 8.117188 -22.9375 8.390625 -22.15625 Z M 8.796875 -20.8125 "/></g></g></g><g fill="#000000" fill-opacity="1"><g transform="translate(40.793796, 45.109792)"><g><path d="M 16.515625 -17.078125 C 15.992188 -17.660156 15.421875 -18.066406 14.796875 -18.296875 C 14.179688 -18.535156 13.539062 -18.65625 12.875 -18.65625 C 12.226562 -18.65625 11.632812 -18.523438 11.09375 -18.265625 C 10.550781 -18.015625 10.082031 -17.609375 9.6875 -17.046875 C 9.289062 -16.484375 8.976562 -15.75 8.75 -14.84375 C 8.53125 -13.945312 8.421875 -12.863281 8.421875 -11.59375 C 8.421875 -10.363281 8.507812 -9.328125 8.6875 -8.484375 C 8.863281 -7.640625 9.113281 -6.957031 9.4375 -6.4375 C 9.757812 -5.925781 10.144531 -5.554688 10.59375 -5.328125 C 11.039062 -5.109375 11.546875 -5 12.109375 -5 C 12.617188 -5 13.078125 -5.046875 13.484375 -5.140625 C 13.898438 -5.234375 14.28125 -5.367188 14.625 -5.546875 C 14.96875 -5.734375 15.289062 -5.960938 15.59375 -6.234375 C 15.90625 -6.515625 16.210938 -6.835938 16.515625 -7.203125 Z M 23.484375 -33.6875 L 23.484375 0 L 19.171875 0 C 18.296875 0 17.722656 -0.390625 17.453125 -1.171875 L 16.921875 -2.953125 C 16.453125 -2.453125 15.960938 -2 15.453125 -1.59375 C 14.941406 -1.1875 14.390625 -0.835938 13.796875 -0.546875 C 13.210938 -0.253906 12.578125 -0.03125 11.890625 0.125 C 11.210938 0.28125 10.472656 0.359375 9.671875 0.359375 C 8.460938 0.359375 7.335938 0.0859375 6.296875 -0.453125 C 5.265625 -0.992188 4.375 -1.769531 3.625 -2.78125 C 2.875 -3.800781 2.285156 -5.050781 1.859375 -6.53125 C 1.429688 -8.007812 1.21875 -9.695312 1.21875 -11.59375 C 1.21875 -13.332031 1.457031 -14.945312 1.9375 -16.4375 C 2.414062 -17.925781 3.09375 -19.210938 3.96875 -20.296875 C 4.84375 -21.390625 5.894531 -22.242188 7.125 -22.859375 C 8.363281 -23.472656 9.722656 -23.78125 11.203125 -23.78125 C 12.421875 -23.78125 13.441406 -23.609375 14.265625 -23.265625 C 15.085938 -22.921875 15.835938 -22.457031 16.515625 -21.875 L 16.515625 -33.6875 Z M 23.484375 -33.6875 "/></g></g></g><g fill="#000000" fill-opacity="1"><g transform="translate(66.907918, 45.109792)"><g><path d="M 16.875 -14.46875 C 16.875 -15.019531 16.800781 -15.554688 16.65625 -16.078125 C 16.519531 -16.609375 16.289062 -17.078125 15.96875 -17.484375 C 15.644531 -17.898438 15.21875 -18.234375 14.6875 -18.484375 C 14.164062 -18.742188 13.53125 -18.875 12.78125 -18.875 C 11.457031 -18.875 10.421875 -18.492188 9.671875 -17.734375 C 8.921875 -16.984375 8.425781 -15.894531 8.1875 -14.46875 Z M 8.09375 -10.421875 C 8.320312 -8.472656 8.914062 -7.054688 9.875 -6.171875 C 10.832031 -5.296875 12.070312 -4.859375 13.59375 -4.859375 C 14.40625 -4.859375 15.101562 -4.953125 15.6875 -5.140625 C 16.269531 -5.335938 16.789062 -5.554688 17.25 -5.796875 C 17.707031 -6.046875 18.125 -6.265625 18.5 -6.453125 C 18.882812 -6.648438 19.285156 -6.75 19.703125 -6.75 C 20.265625 -6.75 20.6875 -6.546875 20.96875 -6.140625 L 23 -3.640625 C 22.28125 -2.816406 21.503906 -2.144531 20.671875 -1.625 C 19.835938 -1.113281 18.976562 -0.710938 18.09375 -0.421875 C 17.21875 -0.128906 16.34375 0.0703125 15.46875 0.1875 C 14.59375 0.300781 13.753906 0.359375 12.953125 0.359375 C 11.316406 0.359375 9.78125 0.09375 8.34375 -0.4375 C 6.914062 -0.96875 5.664062 -1.757812 4.59375 -2.8125 C 3.53125 -3.863281 2.6875 -5.164062 2.0625 -6.71875 C 1.4375 -8.28125 1.125 -10.097656 1.125 -12.171875 C 1.125 -13.734375 1.390625 -15.210938 1.921875 -16.609375 C 2.453125 -18.003906 3.21875 -19.222656 4.21875 -20.265625 C 5.21875 -21.316406 6.425781 -22.148438 7.84375 -22.765625 C 9.257812 -23.378906 10.859375 -23.6875 12.640625 -23.6875 C 14.191406 -23.6875 15.609375 -23.445312 16.890625 -22.96875 C 18.171875 -22.488281 19.269531 -21.789062 20.1875 -20.875 C 21.113281 -19.957031 21.832031 -18.835938 22.34375 -17.515625 C 22.863281 -16.191406 23.125 -14.6875 23.125 -13 C 23.125 -12.476562 23.101562 -12.050781 23.0625 -11.71875 C 23.019531 -11.394531 22.9375 -11.132812 22.8125 -10.9375 C 22.695312 -10.738281 22.535156 -10.601562 22.328125 -10.53125 C 22.128906 -10.457031 21.875 -10.421875 21.5625 -10.421875 Z M 8.09375 -10.421875 "/></g></g></g><g fill="#000000" fill-opacity="1"><g transform="translate(91.425053, 45.109792)"><g><path d="M 8.796875 -20.8125 C 9.242188 -21.226562 9.707031 -21.613281 10.1875 -21.96875 C 10.664062 -22.332031 11.179688 -22.640625 11.734375 -22.890625 C 12.285156 -23.140625 12.878906 -23.332031 13.515625 -23.46875 C 14.148438 -23.613281 14.84375 -23.6875 15.59375 -23.6875 C 16.863281 -23.6875 17.988281 -23.460938 18.96875 -23.015625 C 19.957031 -22.578125 20.789062 -21.960938 21.46875 -21.171875 C 22.144531 -20.390625 22.65625 -19.453125 23 -18.359375 C 23.34375 -17.273438 23.515625 -16.097656 23.515625 -14.828125 L 23.515625 0 L 16.53125 0 L 16.53125 -14.828125 C 16.53125 -15.960938 16.269531 -16.847656 15.75 -17.484375 C 15.226562 -18.128906 14.457031 -18.453125 13.4375 -18.453125 C 12.664062 -18.453125 11.945312 -18.289062 11.28125 -17.96875 C 10.613281 -17.644531 9.96875 -17.207031 9.34375 -16.65625 L 9.34375 0 L 2.359375 0 L 2.359375 -23.328125 L 6.6875 -23.328125 C 7.550781 -23.328125 8.117188 -22.9375 8.390625 -22.15625 Z M 8.796875 -20.8125 "/></g></g></g><g fill="#000000" fill-opacity="1"><g transform="translate(117.021794, 45.109792)"><g><path d="M 10.703125 0.359375 C 9.597656 0.359375 8.617188 0.195312 7.765625 -0.125 C 6.921875 -0.445312 6.207031 -0.90625 5.625 -1.5 C 5.050781 -2.09375 4.613281 -2.804688 4.3125 -3.640625 C 4.019531 -4.484375 3.875 -5.421875 3.875 -6.453125 L 3.875 -18.515625 L 1.890625 -18.515625 C 1.523438 -18.515625 1.210938 -18.628906 0.953125 -18.859375 C 0.703125 -19.097656 0.578125 -19.441406 0.578125 -19.890625 L 0.578125 -22.609375 L 4.296875 -23.328125 L 5.671875 -29.03125 C 5.847656 -29.75 6.359375 -30.109375 7.203125 -30.109375 L 10.84375 -30.109375 L 10.84375 -23.28125 L 16.625 -23.28125 L 16.625 -18.515625 L 10.84375 -18.515625 L 10.84375 -6.9375 C 10.84375 -6.394531 10.972656 -5.945312 11.234375 -5.59375 C 11.492188 -5.238281 11.875 -5.0625 12.375 -5.0625 C 12.625 -5.0625 12.835938 -5.085938 13.015625 -5.140625 C 13.191406 -5.191406 13.34375 -5.25 13.46875 -5.3125 C 13.59375 -5.382812 13.710938 -5.445312 13.828125 -5.5 C 13.941406 -5.550781 14.070312 -5.578125 14.21875 -5.578125 C 14.425781 -5.578125 14.59375 -5.523438 14.71875 -5.421875 C 14.851562 -5.328125 14.988281 -5.175781 15.125 -4.96875 L 17.234375 -1.671875 C 16.335938 -0.992188 15.328125 -0.484375 14.203125 -0.140625 C 13.078125 0.191406 11.910156 0.359375 10.703125 0.359375 Z M 10.703125 0.359375 "/></g></g></g><g fill="#000000" fill-opacity="1"><g transform="translate(134.566179, 45.109792)"><g><path d="M 9.5 -23.328125 L 9.5 0 L 2.515625 0 L 2.515625 -23.328125 Z M 10.21875 -29.71875 C 10.21875 -29.164062 10.101562 -28.644531 9.875 -28.15625 C 9.65625 -27.664062 9.347656 -27.238281 8.953125 -26.875 C 8.566406 -26.507812 8.113281 -26.21875 7.59375 -26 C 7.070312 -25.78125 6.519531 -25.671875 5.9375 -25.671875 C 5.363281 -25.671875 4.828125 -25.78125 4.328125 -26 C 3.835938 -26.21875 3.398438 -26.507812 3.015625 -26.875 C 2.640625 -27.238281 2.34375 -27.664062 2.125 -28.15625 C 1.90625 -28.644531 1.796875 -29.164062 1.796875 -29.71875 C 1.796875 -30.289062 1.90625 -30.820312 2.125 -31.3125 C 2.34375 -31.8125 2.640625 -32.25 3.015625 -32.625 C 3.398438 -33 3.835938 -33.289062 4.328125 -33.5 C 4.828125 -33.707031 5.363281 -33.8125 5.9375 -33.8125 C 6.519531 -33.8125 7.070312 -33.707031 7.59375 -33.5 C 8.113281 -33.289062 8.566406 -33 8.953125 -32.625 C 9.347656 -32.25 9.65625 -31.8125 9.875 -31.3125 C 10.101562 -30.820312 10.21875 -30.289062 10.21875 -29.71875 Z M 10.21875 -29.71875 "/></g></g></g><g fill="#000000" fill-opacity="1"><g transform="translate(146.84726, 45.109792)"><g><path d="M 4.09375 0 L 4.09375 -18.546875 L 2.5625 -18.859375 C 2.039062 -18.972656 1.617188 -19.15625 1.296875 -19.40625 C 0.972656 -19.664062 0.8125 -20.046875 0.8125 -20.546875 L 0.8125 -23.28125 L 4.09375 -23.28125 L 4.09375 -24.609375 C 4.09375 -25.953125 4.304688 -27.160156 4.734375 -28.234375 C 5.160156 -29.316406 5.773438 -30.238281 6.578125 -31 C 7.378906 -31.769531 8.359375 -32.363281 9.515625 -32.78125 C 10.671875 -33.195312 11.984375 -33.40625 13.453125 -33.40625 C 14.023438 -33.40625 14.550781 -33.367188 15.03125 -33.296875 C 15.507812 -33.234375 16.007812 -33.128906 16.53125 -32.984375 L 16.40625 -29.59375 C 16.382812 -29.351562 16.320312 -29.148438 16.21875 -28.984375 C 16.113281 -28.828125 15.972656 -28.703125 15.796875 -28.609375 C 15.628906 -28.515625 15.445312 -28.441406 15.25 -28.390625 C 15.0625 -28.347656 14.867188 -28.328125 14.671875 -28.328125 C 14.054688 -28.328125 13.507812 -28.265625 13.03125 -28.140625 C 12.550781 -28.023438 12.148438 -27.8125 11.828125 -27.5 C 11.503906 -27.195312 11.257812 -26.789062 11.09375 -26.28125 C 10.925781 -25.78125 10.84375 -25.148438 10.84375 -24.390625 L 10.84375 -23.28125 L 16.3125 -23.28125 L 16.3125 -18.515625 L 11.0625 -18.515625 L 11.0625 0 Z M 4.09375 0 "/></g></g></g><g fill="#000000" fill-opacity="1"><g transform="translate(163.581903, 45.109792)"><g><path d="M 9.5 -23.328125 L 9.5 0 L 2.515625 0 L 2.515625 -23.328125 Z M 10.21875 -29.71875 C 10.21875 -29.164062 10.101562 -28.644531 9.875 -28.15625 C 9.65625 -27.664062 9.347656 -27.238281 8.953125 -26.875 C 8.566406 -26.507812 8.113281 -26.21875 7.59375 -26 C 7.070312 -25.78125 6.519531 -25.671875 5.9375 -25.671875 C 5.363281 -25.671875 4.828125 -25.78125 4.328125 -26 C 3.835938 -26.21875 3.398438 -26.507812 3.015625 -26.875 C 2.640625 -27.238281 2.34375 -27.664062 2.125 -28.15625 C 1.90625 -28.644531 1.796875 -29.164062 1.796875 -29.71875 C 1.796875 -30.289062 1.90625 -30.820312 2.125 -31.3125 C 2.34375 -31.8125 2.640625 -32.25 3.015625 -32.625 C 3.398438 -33 3.835938 -33.289062 4.328125 -33.5 C 4.828125 -33.707031 5.363281 -33.8125 5.9375 -33.8125 C 6.519531 -33.8125 7.070312 -33.707031 7.59375 -33.5 C 8.113281 -33.289062 8.566406 -33 8.953125 -32.625 C 9.347656 -32.25 9.65625 -31.8125 9.875 -31.3125 C 10.101562 -30.820312 10.21875 -30.289062 10.21875 -29.71875 Z M 10.21875 -29.71875 "/></g></g></g><g fill="#000000" fill-opacity="1"><g transform="translate(175.862984, 45.109792)"><g><path d="M 19.5 -17.796875 C 19.289062 -17.546875 19.085938 -17.34375 18.890625 -17.1875 C 18.703125 -17.039062 18.425781 -16.96875 18.0625 -16.96875 C 17.71875 -16.96875 17.40625 -17.046875 17.125 -17.203125 C 16.851562 -17.367188 16.546875 -17.550781 16.203125 -17.75 C 15.859375 -17.957031 15.453125 -18.144531 14.984375 -18.3125 C 14.515625 -18.476562 13.9375 -18.5625 13.25 -18.5625 C 12.394531 -18.5625 11.65625 -18.40625 11.03125 -18.09375 C 10.414062 -17.78125 9.90625 -17.328125 9.5 -16.734375 C 9.09375 -16.148438 8.789062 -15.429688 8.59375 -14.578125 C 8.394531 -13.734375 8.296875 -12.78125 8.296875 -11.71875 C 8.296875 -9.488281 8.726562 -7.769531 9.59375 -6.5625 C 10.457031 -5.363281 11.644531 -4.765625 13.15625 -4.765625 C 13.96875 -4.765625 14.609375 -4.863281 15.078125 -5.0625 C 15.554688 -5.269531 15.957031 -5.5 16.28125 -5.75 C 16.613281 -6 16.921875 -6.226562 17.203125 -6.4375 C 17.484375 -6.644531 17.832031 -6.75 18.25 -6.75 C 18.800781 -6.75 19.21875 -6.546875 19.5 -6.140625 L 21.53125 -3.640625 C 20.8125 -2.816406 20.050781 -2.144531 19.25 -1.625 C 18.457031 -1.113281 17.644531 -0.710938 16.8125 -0.421875 C 15.976562 -0.128906 15.140625 0.0703125 14.296875 0.1875 C 13.460938 0.300781 12.648438 0.359375 11.859375 0.359375 C 10.429688 0.359375 9.066406 0.0859375 7.765625 -0.453125 C 6.472656 -0.992188 5.332031 -1.773438 4.34375 -2.796875 C 3.363281 -3.828125 2.582031 -5.09375 2 -6.59375 C 1.425781 -8.09375 1.140625 -9.800781 1.140625 -11.71875 C 1.140625 -13.40625 1.390625 -14.976562 1.890625 -16.4375 C 2.398438 -17.894531 3.144531 -19.160156 4.125 -20.234375 C 5.113281 -21.304688 6.328125 -22.148438 7.765625 -22.765625 C 9.210938 -23.378906 10.890625 -23.6875 12.796875 -23.6875 C 14.628906 -23.6875 16.234375 -23.394531 17.609375 -22.8125 C 18.992188 -22.226562 20.242188 -21.375 21.359375 -20.25 Z M 19.5 -17.796875 "/></g></g></g><g fill="#000000" fill-opacity="1"><g transform="translate(198.018382, 45.109792)"><g><path d="M 14.40625 -9.5 C 13.007812 -9.4375 11.859375 -9.3125 10.953125 -9.125 C 10.054688 -8.945312 9.34375 -8.722656 8.8125 -8.453125 C 8.289062 -8.191406 7.925781 -7.882812 7.71875 -7.53125 C 7.519531 -7.1875 7.421875 -6.8125 7.421875 -6.40625 C 7.421875 -5.613281 7.640625 -5.054688 8.078125 -4.734375 C 8.515625 -4.410156 9.148438 -4.25 9.984375 -4.25 C 10.890625 -4.25 11.675781 -4.40625 12.34375 -4.71875 C 13.019531 -5.039062 13.707031 -5.550781 14.40625 -6.25 Z M 1.84375 -20.09375 C 3.25 -21.332031 4.8125 -22.253906 6.53125 -22.859375 C 8.25 -23.472656 10.09375 -23.78125 12.0625 -23.78125 C 13.46875 -23.78125 14.738281 -23.550781 15.875 -23.09375 C 17.007812 -22.632812 17.96875 -21.992188 18.75 -21.171875 C 19.539062 -20.359375 20.144531 -19.390625 20.5625 -18.265625 C 20.976562 -17.140625 21.1875 -15.910156 21.1875 -14.578125 L 21.1875 0 L 18 0 C 17.34375 0 16.84375 -0.0859375 16.5 -0.265625 C 16.164062 -0.453125 15.882812 -0.828125 15.65625 -1.390625 L 15.171875 -2.671875 C 14.578125 -2.179688 14.007812 -1.75 13.46875 -1.375 C 12.9375 -1 12.378906 -0.675781 11.796875 -0.40625 C 11.222656 -0.144531 10.609375 0.046875 9.953125 0.171875 C 9.304688 0.296875 8.582031 0.359375 7.78125 0.359375 C 6.71875 0.359375 5.75 0.222656 4.875 -0.046875 C 4.007812 -0.328125 3.269531 -0.738281 2.65625 -1.28125 C 2.050781 -1.820312 1.582031 -2.492188 1.25 -3.296875 C 0.925781 -4.097656 0.765625 -5.023438 0.765625 -6.078125 C 0.765625 -6.910156 0.972656 -7.757812 1.390625 -8.625 C 1.816406 -9.488281 2.546875 -10.273438 3.578125 -10.984375 C 4.609375 -11.703125 6 -12.300781 7.75 -12.78125 C 9.507812 -13.257812 11.726562 -13.53125 14.40625 -13.59375 L 14.40625 -14.578125 C 14.40625 -15.941406 14.125 -16.925781 13.5625 -17.53125 C 13 -18.144531 12.195312 -18.453125 11.15625 -18.453125 C 10.332031 -18.453125 9.65625 -18.359375 9.125 -18.171875 C 8.601562 -17.992188 8.132812 -17.789062 7.71875 -17.5625 C 7.3125 -17.34375 6.910156 -17.140625 6.515625 -16.953125 C 6.128906 -16.773438 5.664062 -16.6875 5.125 -16.6875 C 4.644531 -16.6875 4.238281 -16.804688 3.90625 -17.046875 C 3.582031 -17.296875 3.316406 -17.582031 3.109375 -17.90625 Z M 1.84375 -20.09375 "/></g></g></g><g fill="#000000" fill-opacity="1"><g transform="translate(221.568335, 45.109792)"><g><path d="M 8.890625 -19.734375 C 9.609375 -20.992188 10.4375 -21.984375 11.375 -22.703125 C 12.3125 -23.421875 13.390625 -23.78125 14.609375 -23.78125 C 15.648438 -23.78125 16.503906 -23.535156 17.171875 -23.046875 L 16.71875 -17.90625 C 16.644531 -17.582031 16.519531 -17.359375 16.34375 -17.234375 C 16.175781 -17.117188 15.941406 -17.0625 15.640625 -17.0625 C 15.515625 -17.0625 15.351562 -17.066406 15.15625 -17.078125 C 14.96875 -17.085938 14.769531 -17.101562 14.5625 -17.125 C 14.351562 -17.15625 14.140625 -17.179688 13.921875 -17.203125 C 13.703125 -17.222656 13.5 -17.234375 13.3125 -17.234375 C 12.300781 -17.234375 11.488281 -16.960938 10.875 -16.421875 C 10.269531 -15.878906 9.757812 -15.128906 9.34375 -14.171875 L 9.34375 0 L 2.359375 0 L 2.359375 -23.328125 L 6.5 -23.328125 C 6.84375 -23.328125 7.128906 -23.296875 7.359375 -23.234375 C 7.597656 -23.179688 7.796875 -23.085938 7.953125 -22.953125 C 8.109375 -22.828125 8.226562 -22.660156 8.3125 -22.453125 C 8.394531 -22.242188 8.46875 -21.988281 8.53125 -21.6875 Z M 8.890625 -19.734375 "/></g></g></g><g fill="#000000" fill-opacity="1"><g transform="translate(238.077913, 45.109792)"><g/></g></g><g fill="#000000" fill-opacity="1"><g transform="translate(248.739522, 45.109792)"><g><path d="M 10.828125 -26.9375 L 10.828125 -18.625 L 22.03125 -18.625 L 22.03125 -12.75 L 10.828125 -12.75 L 10.828125 0 L 3.171875 0 L 3.171875 -32.78125 L 24.28125 -32.78125 L 24.28125 -26.9375 Z M 10.828125 -26.9375 "/></g></g></g><g fill="#000000" fill-opacity="1"><g transform="translate(272.424111, 45.109792)"><g><path d="M 13.125 -23.6875 C 14.882812 -23.6875 16.492188 -23.410156 17.953125 -22.859375 C 19.410156 -22.304688 20.660156 -21.507812 21.703125 -20.46875 C 22.742188 -19.4375 23.550781 -18.179688 24.125 -16.703125 C 24.707031 -15.222656 25 -13.5625 25 -11.71875 C 25 -9.863281 24.707031 -8.1875 24.125 -6.6875 C 23.550781 -5.195312 22.742188 -3.929688 21.703125 -2.890625 C 20.660156 -1.847656 19.410156 -1.046875 17.953125 -0.484375 C 16.492188 0.078125 14.882812 0.359375 13.125 0.359375 C 11.332031 0.359375 9.703125 0.078125 8.234375 -0.484375 C 6.773438 -1.046875 5.515625 -1.847656 4.453125 -2.890625 C 3.398438 -3.929688 2.582031 -5.195312 2 -6.6875 C 1.425781 -8.1875 1.140625 -9.863281 1.140625 -11.71875 C 1.140625 -13.5625 1.425781 -15.222656 2 -16.703125 C 2.582031 -18.179688 3.398438 -19.4375 4.453125 -20.46875 C 5.515625 -21.507812 6.773438 -22.304688 8.234375 -22.859375 C 9.703125 -23.410156 11.332031 -23.6875 13.125 -23.6875 Z M 13.125 -4.8125 C 14.726562 -4.8125 15.90625 -5.378906 16.65625 -6.515625 C 17.414062 -7.648438 17.796875 -9.367188 17.796875 -11.671875 C 17.796875 -13.984375 17.414062 -15.703125 16.65625 -16.828125 C 15.90625 -17.953125 14.726562 -18.515625 13.125 -18.515625 C 11.46875 -18.515625 10.253906 -17.953125 9.484375 -16.828125 C 8.722656 -15.703125 8.34375 -13.984375 8.34375 -11.671875 C 8.34375 -9.367188 8.722656 -7.648438 9.484375 -6.515625 C 10.253906 -5.378906 11.46875 -4.8125 13.125 -4.8125 Z M 13.125 -4.8125 "/></g></g></g><g fill="#000000" fill-opacity="1"><g transform="translate(298.830628, 45.109792)"><g><path d="M 8.890625 -19.734375 C 9.609375 -20.992188 10.4375 -21.984375 11.375 -22.703125 C 12.3125 -23.421875 13.390625 -23.78125 14.609375 -23.78125 C 15.648438 -23.78125 16.503906 -23.535156 17.171875 -23.046875 L 16.71875 -17.90625 C 16.644531 -17.582031 16.519531 -17.359375 16.34375 -17.234375 C 16.175781 -17.117188 15.941406 -17.0625 15.640625 -17.0625 C 15.515625 -17.0625 15.351562 -17.066406 15.15625 -17.078125 C 14.96875 -17.085938 14.769531 -17.101562 14.5625 -17.125 C 14.351562 -17.15625 14.140625 -17.179688 13.921875 -17.203125 C 13.703125 -17.222656 13.5 -17.234375 13.3125 -17.234375 C 12.300781 -17.234375 11.488281 -16.960938 10.875 -16.421875 C 10.269531 -15.878906 9.757812 -15.128906 9.34375 -14.171875 L 9.34375 0 L 2.359375 0 L 2.359375 -23.328125 L 6.5 -23.328125 C 6.84375 -23.328125 7.128906 -23.296875 7.359375 -23.234375 C 7.597656 -23.179688 7.796875 -23.085938 7.953125 -22.953125 C 8.109375 -22.828125 8.226562 -22.660156 8.3125 -22.453125 C 8.394531 -22.242188 8.46875 -21.988281 8.53125 -21.6875 Z M 8.890625 -19.734375 "/></g></g></g><g fill="#000000" fill-opacity="1"><g transform="translate(316.262543, 45.109792)"><g><path d="M 2.359375 0 L 2.359375 -23.328125 L 6.6875 -23.328125 C 7.550781 -23.328125 8.117188 -22.9375 8.390625 -22.15625 L 8.78125 -20.90625 C 9.164062 -21.3125 9.566406 -21.679688 9.984375 -22.015625 C 10.410156 -22.347656 10.863281 -22.640625 11.34375 -22.890625 C 11.832031 -23.140625 12.359375 -23.332031 12.921875 -23.46875 C 13.484375 -23.613281 14.101562 -23.6875 14.78125 -23.6875 C 16.1875 -23.6875 17.351562 -23.320312 18.28125 -22.59375 C 19.207031 -21.875 19.910156 -20.90625 20.390625 -19.6875 C 20.773438 -20.40625 21.25 -21.019531 21.8125 -21.53125 C 22.375 -22.039062 22.976562 -22.453125 23.625 -22.765625 C 24.28125 -23.085938 24.972656 -23.320312 25.703125 -23.46875 C 26.429688 -23.613281 27.15625 -23.6875 27.875 -23.6875 C 29.207031 -23.6875 30.390625 -23.488281 31.421875 -23.09375 C 32.460938 -22.695312 33.332031 -22.117188 34.03125 -21.359375 C 34.726562 -20.609375 35.253906 -19.679688 35.609375 -18.578125 C 35.972656 -17.472656 36.15625 -16.222656 36.15625 -14.828125 L 36.15625 0 L 29.1875 0 L 29.1875 -14.828125 C 29.1875 -17.242188 28.148438 -18.453125 26.078125 -18.453125 C 25.128906 -18.453125 24.34375 -18.140625 23.71875 -17.515625 C 23.101562 -16.890625 22.796875 -15.992188 22.796875 -14.828125 L 22.796875 0 L 15.8125 0 L 15.8125 -14.828125 C 15.8125 -16.160156 15.550781 -17.097656 15.03125 -17.640625 C 14.507812 -18.179688 13.738281 -18.453125 12.71875 -18.453125 C 12.082031 -18.453125 11.484375 -18.304688 10.921875 -18.015625 C 10.359375 -17.734375 9.832031 -17.351562 9.34375 -16.875 L 9.34375 0 Z M 2.359375 0 "/></g></g></g><g fill="#000000" fill-opacity="1"><g transform="translate(354.815174, 45.109792)"><g><path d="M 14.40625 -9.5 C 13.007812 -9.4375 11.859375 -9.3125 10.953125 -9.125 C 10.054688 -8.945312 9.34375 -8.722656 8.8125 -8.453125 C 8.289062 -8.191406 7.925781 -7.882812 7.71875 -7.53125 C 7.519531 -7.1875 7.421875 -6.8125 7.421875 -6.40625 C 7.421875 -5.613281 7.640625 -5.054688 8.078125 -4.734375 C 8.515625 -4.410156 9.148438 -4.25 9.984375 -4.25 C 10.890625 -4.25 11.675781 -4.40625 12.34375 -4.71875 C 13.019531 -5.039062 13.707031 -5.550781 14.40625 -6.25 Z M 1.84375 -20.09375 C 3.25 -21.332031 4.8125 -22.253906 6.53125 -22.859375 C 8.25 -23.472656 10.09375 -23.78125 12.0625 -23.78125 C 13.46875 -23.78125 14.738281 -23.550781 15.875 -23.09375 C 17.007812 -22.632812 17.96875 -21.992188 18.75 -21.171875 C 19.539062 -20.359375 20.144531 -19.390625 20.5625 -18.265625 C 20.976562 -17.140625 21.1875 -15.910156 21.1875 -14.578125 L 21.1875 0 L 18 0 C 17.34375 0 16.84375 -0.0859375 16.5 -0.265625 C 16.164062 -0.453125 15.882812 -0.828125 15.65625 -1.390625 L 15.171875 -2.671875 C 14.578125 -2.179688 14.007812 -1.75 13.46875 -1.375 C 12.9375 -1 12.378906 -0.675781 11.796875 -0.40625 C 11.222656 -0.144531 10.609375 0.046875 9.953125 0.171875 C 9.304688 0.296875 8.582031 0.359375 7.78125 0.359375 C 6.71875 0.359375 5.75 0.222656 4.875 -0.046875 C 4.007812 -0.328125 3.269531 -0.738281 2.65625 -1.28125 C 2.050781 -1.820312 1.582031 -2.492188 1.25 -3.296875 C 0.925781 -4.097656 0.765625 -5.023438 0.765625 -6.078125 C 0.765625 -6.910156 0.972656 -7.757812 1.390625 -8.625 C 1.816406 -9.488281 2.546875 -10.273438 3.578125 -10.984375 C 4.609375 -11.703125 6 -12.300781 7.75 -12.78125 C 9.507812 -13.257812 11.726562 -13.53125 14.40625 -13.59375 L 14.40625 -14.578125 C 14.40625 -15.941406 14.125 -16.925781 13.5625 -17.53125 C 13 -18.144531 12.195312 -18.453125 11.15625 -18.453125 C 10.332031 -18.453125 9.65625 -18.359375 9.125 -18.171875 C 8.601562 -17.992188 8.132812 -17.789062 7.71875 -17.5625 C 7.3125 -17.34375 6.910156 -17.140625 6.515625 -16.953125 C 6.128906 -16.773438 5.664062 -16.6875 5.125 -16.6875 C 4.644531 -16.6875 4.238281 -16.804688 3.90625 -17.046875 C 3.582031 -17.296875 3.316406 -17.582031 3.109375 -17.90625 Z M 1.84375 -20.09375 "/></g></g></g><g fill="#000000" fill-opacity="1"><g transform="translate(378.365105, 45.109792)"><g><path d="M 17.1875 -18.21875 C 17.007812 -17.9375 16.816406 -17.734375 16.609375 -17.609375 C 16.410156 -17.492188 16.15625 -17.4375 15.84375 -17.4375 C 15.507812 -17.4375 15.175781 -17.503906 14.84375 -17.640625 C 14.519531 -17.785156 14.164062 -17.941406 13.78125 -18.109375 C 13.394531 -18.273438 12.960938 -18.425781 12.484375 -18.5625 C 12.003906 -18.707031 11.457031 -18.78125 10.84375 -18.78125 C 9.957031 -18.78125 9.273438 -18.613281 8.796875 -18.28125 C 8.328125 -17.945312 8.09375 -17.476562 8.09375 -16.875 C 8.09375 -16.4375 8.242188 -16.078125 8.546875 -15.796875 C 8.859375 -15.515625 9.269531 -15.265625 9.78125 -15.046875 C 10.289062 -14.828125 10.867188 -14.617188 11.515625 -14.421875 C 12.160156 -14.222656 12.820312 -14.003906 13.5 -13.765625 C 14.175781 -13.523438 14.835938 -13.242188 15.484375 -12.921875 C 16.128906 -12.597656 16.707031 -12.203125 17.21875 -11.734375 C 17.726562 -11.265625 18.132812 -10.691406 18.4375 -10.015625 C 18.75 -9.335938 18.90625 -8.523438 18.90625 -7.578125 C 18.90625 -6.421875 18.691406 -5.351562 18.265625 -4.375 C 17.847656 -3.40625 17.222656 -2.566406 16.390625 -1.859375 C 15.554688 -1.160156 14.523438 -0.613281 13.296875 -0.21875 C 12.078125 0.164062 10.675781 0.359375 9.09375 0.359375 C 8.289062 0.359375 7.492188 0.28125 6.703125 0.125 C 5.910156 -0.0195312 5.140625 -0.21875 4.390625 -0.46875 C 3.648438 -0.726562 2.960938 -1.03125 2.328125 -1.375 C 1.703125 -1.726562 1.164062 -2.109375 0.71875 -2.515625 L 2.34375 -5.078125 C 2.519531 -5.378906 2.742188 -5.613281 3.015625 -5.78125 C 3.296875 -5.957031 3.65625 -6.046875 4.09375 -6.046875 C 4.5 -6.046875 4.863281 -5.957031 5.1875 -5.78125 C 5.507812 -5.601562 5.859375 -5.40625 6.234375 -5.1875 C 6.609375 -4.976562 7.046875 -4.785156 7.546875 -4.609375 C 8.046875 -4.429688 8.679688 -4.34375 9.453125 -4.34375 C 9.992188 -4.34375 10.453125 -4.398438 10.828125 -4.515625 C 11.203125 -4.628906 11.5 -4.78125 11.71875 -4.96875 C 11.945312 -5.164062 12.113281 -5.382812 12.21875 -5.625 C 12.320312 -5.863281 12.375 -6.113281 12.375 -6.375 C 12.375 -6.832031 12.21875 -7.210938 11.90625 -7.515625 C 11.59375 -7.816406 11.179688 -8.078125 10.671875 -8.296875 C 10.160156 -8.515625 9.578125 -8.71875 8.921875 -8.90625 C 8.265625 -9.09375 7.597656 -9.304688 6.921875 -9.546875 C 6.253906 -9.785156 5.59375 -10.070312 4.9375 -10.40625 C 4.28125 -10.738281 3.695312 -11.164062 3.1875 -11.6875 C 2.6875 -12.207031 2.273438 -12.84375 1.953125 -13.59375 C 1.640625 -14.34375 1.484375 -15.25 1.484375 -16.3125 C 1.484375 -17.300781 1.671875 -18.238281 2.046875 -19.125 C 2.429688 -20.019531 3.003906 -20.804688 3.765625 -21.484375 C 4.535156 -22.160156 5.5 -22.695312 6.65625 -23.09375 C 7.8125 -23.488281 9.160156 -23.6875 10.703125 -23.6875 C 11.546875 -23.6875 12.359375 -23.613281 13.140625 -23.46875 C 13.929688 -23.320312 14.671875 -23.113281 15.359375 -22.84375 C 16.054688 -22.570312 16.6875 -22.25 17.25 -21.875 C 17.820312 -21.507812 18.328125 -21.109375 18.765625 -20.671875 Z M 17.1875 -18.21875 "/></g></g></g></g></g></g><g clip-path="url(#21403fbd37)"><g transform="matrix(1, 0, 0, 1, 31, 71)"><g clip-path="url(#5646bad033)"><g fill="#000000" fill-opacity="1"><g transform="translate(2.021091, 21.144359)"><g><path d="M 8.859375 -5.65625 L 7.84375 -10.8125 C 7.800781 -11.050781 7.753906 -11.328125 7.703125 -11.640625 C 7.648438 -11.953125 7.59375 -12.289062 7.53125 -12.65625 C 7.394531 -12.289062 7.257812 -11.953125 7.125 -11.640625 C 7 -11.328125 6.882812 -11.046875 6.78125 -10.796875 L 4.5 -5.65625 Z M 12.796875 0 L 10.703125 0 C 10.460938 0 10.273438 -0.0546875 10.140625 -0.171875 C 10.015625 -0.285156 9.925781 -0.429688 9.875 -0.609375 L 9.25 -3.75 L 3.640625 -3.75 L 2.25 -0.609375 C 2.175781 -0.453125 2.050781 -0.3125 1.875 -0.1875 C 1.707031 -0.0625 1.515625 0 1.296875 0 L -0.828125 0 L 6.4375 -15.046875 L 9.203125 -15.046875 Z M 12.796875 0 "/></g></g></g><g fill="#000000" fill-opacity="1"><g transform="translate(16.446649, 21.144359)"><g><path d="M 6.28125 -7.4375 C 6.820312 -7.4375 7.285156 -7.515625 7.671875 -7.671875 C 8.054688 -7.828125 8.375 -8.046875 8.625 -8.328125 C 8.882812 -8.617188 9.070312 -8.960938 9.1875 -9.359375 C 9.3125 -9.753906 9.375 -10.191406 9.375 -10.671875 C 9.375 -11.015625 9.320312 -11.328125 9.21875 -11.609375 C 9.125 -11.898438 8.976562 -12.144531 8.78125 -12.34375 C 8.582031 -12.539062 8.332031 -12.691406 8.03125 -12.796875 C 7.726562 -12.910156 7.367188 -12.96875 6.953125 -12.96875 L 5.078125 -12.96875 L 4.40625 -7.4375 Z M 7.21875 -15.046875 C 8.0625 -15.046875 8.789062 -14.941406 9.40625 -14.734375 C 10.019531 -14.535156 10.523438 -14.25 10.921875 -13.875 C 11.316406 -13.507812 11.609375 -13.078125 11.796875 -12.578125 C 11.992188 -12.078125 12.09375 -11.523438 12.09375 -10.921875 C 12.09375 -10.109375 11.960938 -9.359375 11.703125 -8.671875 C 11.453125 -7.992188 11.070312 -7.40625 10.5625 -6.90625 C 10.0625 -6.414062 9.429688 -6.03125 8.671875 -5.75 C 7.910156 -5.46875 7.023438 -5.328125 6.015625 -5.328125 L 4.140625 -5.328125 L 3.484375 0 L 0.796875 0 L 2.625 -15.046875 Z M 7.21875 -15.046875 "/></g></g></g><g fill="#000000" fill-opacity="1"><g transform="translate(29.435925, 21.144359)"><g><path d="M 6 -7.859375 C 6.539062 -7.859375 7.003906 -7.9375 7.390625 -8.09375 C 7.785156 -8.25 8.113281 -8.460938 8.375 -8.734375 C 8.632812 -9.003906 8.828125 -9.320312 8.953125 -9.6875 C 9.078125 -10.0625 9.140625 -10.460938 9.140625 -10.890625 C 9.140625 -11.535156 8.9375 -12.039062 8.53125 -12.40625 C 8.125 -12.78125 7.5 -12.96875 6.65625 -12.96875 L 5.078125 -12.96875 L 4.453125 -7.859375 Z M 6.90625 -15.046875 C 7.769531 -15.046875 8.515625 -14.953125 9.140625 -14.765625 C 9.765625 -14.585938 10.273438 -14.332031 10.671875 -14 C 11.066406 -13.664062 11.359375 -13.269531 11.546875 -12.8125 C 11.734375 -12.363281 11.828125 -11.863281 11.828125 -11.3125 C 11.828125 -10.738281 11.742188 -10.191406 11.578125 -9.671875 C 11.410156 -9.160156 11.175781 -8.695312 10.875 -8.28125 C 10.570312 -7.863281 10.195312 -7.5 9.75 -7.1875 C 9.300781 -6.875 8.796875 -6.632812 8.234375 -6.46875 C 8.398438 -6.363281 8.546875 -6.242188 8.671875 -6.109375 C 8.796875 -5.972656 8.910156 -5.804688 9.015625 -5.609375 L 11.703125 0 L 9.265625 0 C 8.804688 0 8.5 -0.179688 8.34375 -0.546875 L 6.140625 -5.421875 C 6.054688 -5.597656 5.953125 -5.726562 5.828125 -5.8125 C 5.710938 -5.894531 5.523438 -5.9375 5.265625 -5.9375 L 4.21875 -5.9375 L 3.484375 0 L 0.796875 0 L 2.625 -15.046875 Z M 6.90625 -15.046875 "/></g></g></g><g fill="#000000" fill-opacity="1"><g transform="translate(42.810285, 21.144359)"><g><path d="M 5.109375 -12.890625 L 4.578125 -8.609375 L 9.328125 -8.609375 L 9.078125 -6.546875 L 4.3125 -6.546875 L 3.78125 -2.15625 L 9.859375 -2.15625 L 9.578125 0 L 0.796875 0 L 2.65625 -15.046875 L 11.421875 -15.046875 L 11.15625 -12.890625 Z M 5.109375 -12.890625 "/></g></g></g><g fill="#000000" fill-opacity="1"><g transform="translate(54.873263, 21.144359)"><g><path d="M 14.421875 -15.046875 L 12.578125 0 L 11.171875 0 C 10.960938 0 10.789062 -0.0351562 10.65625 -0.109375 C 10.519531 -0.179688 10.394531 -0.300781 10.28125 -0.46875 L 4.453125 -10.75 C 4.441406 -10.570312 4.425781 -10.40625 4.40625 -10.25 C 4.394531 -10.09375 4.382812 -9.945312 4.375 -9.8125 L 3.1875 0 L 0.796875 0 L 2.65625 -15.046875 L 4.0625 -15.046875 C 4.1875 -15.046875 4.285156 -15.039062 4.359375 -15.03125 C 4.441406 -15.019531 4.515625 -15 4.578125 -14.96875 C 4.640625 -14.9375 4.691406 -14.890625 4.734375 -14.828125 C 4.785156 -14.773438 4.84375 -14.703125 4.90625 -14.609375 L 10.765625 -4.34375 C 10.773438 -4.550781 10.785156 -4.75 10.796875 -4.9375 C 10.816406 -5.125 10.835938 -5.300781 10.859375 -5.46875 L 12.046875 -15.046875 Z M 14.421875 -15.046875 "/></g></g></g><g fill="#000000" fill-opacity="1"><g transform="translate(70.703876, 21.144359)"><g><path d="M 14.15625 -8.53125 C 14.15625 -7.28125 13.953125 -6.128906 13.546875 -5.078125 C 13.148438 -4.035156 12.59375 -3.140625 11.875 -2.390625 C 11.15625 -1.640625 10.300781 -1.050781 9.3125 -0.625 C 8.332031 -0.207031 7.257812 0 6.09375 0 L 0.796875 0 L 2.65625 -15.046875 L 7.953125 -15.046875 C 8.910156 -15.046875 9.773438 -14.878906 10.546875 -14.546875 C 11.316406 -14.222656 11.96875 -13.773438 12.5 -13.203125 C 13.03125 -12.628906 13.4375 -11.941406 13.71875 -11.140625 C 14.007812 -10.347656 14.15625 -9.476562 14.15625 -8.53125 Z M 11.390625 -8.46875 C 11.390625 -9.144531 11.304688 -9.753906 11.140625 -10.296875 C 10.972656 -10.847656 10.734375 -11.316406 10.421875 -11.703125 C 10.109375 -12.085938 9.722656 -12.382812 9.265625 -12.59375 C 8.804688 -12.800781 8.28125 -12.90625 7.6875 -12.90625 L 5.109375 -12.90625 L 3.78125 -2.15625 L 6.375 -2.15625 C 7.125 -2.15625 7.804688 -2.300781 8.421875 -2.59375 C 9.046875 -2.882812 9.578125 -3.300781 10.015625 -3.84375 C 10.453125 -4.382812 10.789062 -5.046875 11.03125 -5.828125 C 11.269531 -6.609375 11.390625 -7.488281 11.390625 -8.46875 Z M 11.390625 -8.46875 "/></g></g></g><g fill="#000000" fill-opacity="1"><g transform="translate(85.93081, 21.144359)"><g><path d="M 8.859375 -5.65625 L 7.84375 -10.8125 C 7.800781 -11.050781 7.753906 -11.328125 7.703125 -11.640625 C 7.648438 -11.953125 7.59375 -12.289062 7.53125 -12.65625 C 7.394531 -12.289062 7.257812 -11.953125 7.125 -11.640625 C 7 -11.328125 6.882812 -11.046875 6.78125 -10.796875 L 4.5 -5.65625 Z M 12.796875 0 L 10.703125 0 C 10.460938 0 10.273438 -0.0546875 10.140625 -0.171875 C 10.015625 -0.285156 9.925781 -0.429688 9.875 -0.609375 L 9.25 -3.75 L 3.640625 -3.75 L 2.25 -0.609375 C 2.175781 -0.453125 2.050781 -0.3125 1.875 -0.1875 C 1.707031 -0.0625 1.515625 0 1.296875 0 L -0.828125 0 L 6.4375 -15.046875 L 9.203125 -15.046875 Z M 12.796875 0 "/></g></g></g><g fill="#000000" fill-opacity="1"><g transform="translate(99.700631, 21.144359)"><g/></g></g><g fill="#000000" fill-opacity="1"><g transform="translate(105.154634, 21.144359)"><g><path d="M 15.125 -8.53125 C 15.125 -7.695312 15.03125 -6.90625 14.84375 -6.15625 C 14.65625 -5.40625 14.390625 -4.707031 14.046875 -4.0625 C 13.710938 -3.414062 13.300781 -2.832031 12.8125 -2.3125 C 12.332031 -1.789062 11.789062 -1.34375 11.1875 -0.96875 C 10.59375 -0.601562 9.941406 -0.320312 9.234375 -0.125 C 8.535156 0.0703125 7.800781 0.171875 7.03125 0.171875 C 6.070312 0.171875 5.210938 0 4.453125 -0.34375 C 3.691406 -0.6875 3.039062 -1.15625 2.5 -1.75 C 1.96875 -2.34375 1.554688 -3.046875 1.265625 -3.859375 C 0.984375 -4.671875 0.84375 -5.550781 0.84375 -6.5 C 0.84375 -7.332031 0.929688 -8.125 1.109375 -8.875 C 1.296875 -9.632812 1.5625 -10.335938 1.90625 -10.984375 C 2.25 -11.628906 2.660156 -12.207031 3.140625 -12.71875 C 3.628906 -13.238281 4.171875 -13.6875 4.765625 -14.0625 C 5.367188 -14.4375 6.019531 -14.722656 6.71875 -14.921875 C 7.425781 -15.117188 8.164062 -15.21875 8.9375 -15.21875 C 9.894531 -15.21875 10.753906 -15.046875 11.515625 -14.703125 C 12.285156 -14.359375 12.9375 -13.890625 13.46875 -13.296875 C 14 -12.703125 14.40625 -11.992188 14.6875 -11.171875 C 14.976562 -10.359375 15.125 -9.476562 15.125 -8.53125 Z M 12.359375 -8.46875 C 12.359375 -9.144531 12.269531 -9.757812 12.09375 -10.3125 C 11.925781 -10.875 11.679688 -11.351562 11.359375 -11.75 C 11.035156 -12.144531 10.640625 -12.445312 10.171875 -12.65625 C 9.710938 -12.875 9.191406 -12.984375 8.609375 -12.984375 C 7.859375 -12.984375 7.175781 -12.832031 6.5625 -12.53125 C 5.945312 -12.226562 5.421875 -11.796875 4.984375 -11.234375 C 4.546875 -10.671875 4.207031 -9.992188 3.96875 -9.203125 C 3.726562 -8.410156 3.609375 -7.53125 3.609375 -6.5625 C 3.609375 -5.882812 3.691406 -5.265625 3.859375 -4.703125 C 4.023438 -4.148438 4.265625 -3.675781 4.578125 -3.28125 C 4.898438 -2.894531 5.289062 -2.597656 5.75 -2.390625 C 6.21875 -2.179688 6.75 -2.078125 7.34375 -2.078125 C 8.09375 -2.078125 8.773438 -2.226562 9.390625 -2.53125 C 10.015625 -2.832031 10.546875 -3.257812 10.984375 -3.8125 C 11.421875 -4.375 11.757812 -5.046875 12 -5.828125 C 12.238281 -6.617188 12.359375 -7.5 12.359375 -8.46875 Z M 12.359375 -8.46875 "/></g></g></g><g fill="#000000" fill-opacity="1"><g transform="translate(121.724202, 21.144359)"><g/></g></g><g fill="#000000" fill-opacity="1"><g transform="translate(127.178205, 21.144359)"><g><path d="M 14.421875 -15.046875 L 12.578125 0 L 11.171875 0 C 10.960938 0 10.789062 -0.0351562 10.65625 -0.109375 C 10.519531 -0.179688 10.394531 -0.300781 10.28125 -0.46875 L 4.453125 -10.75 C 4.441406 -10.570312 4.425781 -10.40625 4.40625 -10.25 C 4.394531 -10.09375 4.382812 -9.945312 4.375 -9.8125 L 3.1875 0 L 0.796875 0 L 2.65625 -15.046875 L 4.0625 -15.046875 C 4.1875 -15.046875 4.285156 -15.039062 4.359375 -15.03125 C 4.441406 -15.019531 4.515625 -15 4.578125 -14.96875 C 4.640625 -14.9375 4.691406 -14.890625 4.734375 -14.828125 C 4.785156 -14.773438 4.84375 -14.703125 4.90625 -14.609375 L 10.765625 -4.34375 C 10.773438 -4.550781 10.785156 -4.75 10.796875 -4.9375 C 10.816406 -5.125 10.835938 -5.300781 10.859375 -5.46875 L 12.046875 -15.046875 Z M 14.421875 -15.046875 "/></g></g></g><g fill="#000000" fill-opacity="1"><g transform="translate(143.008819, 21.144359)"><g><path d="M 15.125 -8.53125 C 15.125 -7.695312 15.03125 -6.90625 14.84375 -6.15625 C 14.65625 -5.40625 14.390625 -4.707031 14.046875 -4.0625 C 13.710938 -3.414062 13.300781 -2.832031 12.8125 -2.3125 C 12.332031 -1.789062 11.789062 -1.34375 11.1875 -0.96875 C 10.59375 -0.601562 9.941406 -0.320312 9.234375 -0.125 C 8.535156 0.0703125 7.800781 0.171875 7.03125 0.171875 C 6.070312 0.171875 5.210938 0 4.453125 -0.34375 C 3.691406 -0.6875 3.039062 -1.15625 2.5 -1.75 C 1.96875 -2.34375 1.554688 -3.046875 1.265625 -3.859375 C 0.984375 -4.671875 0.84375 -5.550781 0.84375 -6.5 C 0.84375 -7.332031 0.929688 -8.125 1.109375 -8.875 C 1.296875 -9.632812 1.5625 -10.335938 1.90625 -10.984375 C 2.25 -11.628906 2.660156 -12.207031 3.140625 -12.71875 C 3.628906 -13.238281 4.171875 -13.6875 4.765625 -14.0625 C 5.367188 -14.4375 6.019531 -14.722656 6.71875 -14.921875 C 7.425781 -15.117188 8.164062 -15.21875 8.9375 -15.21875 C 9.894531 -15.21875 10.753906 -15.046875 11.515625 -14.703125 C 12.285156 -14.359375 12.9375 -13.890625 13.46875 -13.296875 C 14 -12.703125 14.40625 -11.992188 14.6875 -11.171875 C 14.976562 -10.359375 15.125 -9.476562 15.125 -8.53125 Z M 12.359375 -8.46875 C 12.359375 -9.144531 12.269531 -9.757812 12.09375 -10.3125 C 11.925781 -10.875 11.679688 -11.351562 11.359375 -11.75 C 11.035156 -12.144531 10.640625 -12.445312 10.171875 -12.65625 C 9.710938 -12.875 9.191406 -12.984375 8.609375 -12.984375 C 7.859375 -12.984375 7.175781 -12.832031 6.5625 -12.53125 C 5.945312 -12.226562 5.421875 -11.796875 4.984375 -11.234375 C 4.546875 -10.671875 4.207031 -9.992188 3.96875 -9.203125 C 3.726562 -8.410156 3.609375 -7.53125 3.609375 -6.5625 C 3.609375 -5.882812 3.691406 -5.265625 3.859375 -4.703125 C 4.023438 -4.148438 4.265625 -3.675781 4.578125 -3.28125 C 4.898438 -2.894531 5.289062 -2.597656 5.75 -2.390625 C 6.21875 -2.179688 6.75 -2.078125 7.34375 -2.078125 C 8.09375 -2.078125 8.773438 -2.226562 9.390625 -2.53125 C 10.015625 -2.832031 10.546875 -3.257812 10.984375 -3.8125 C 11.421875 -4.375 11.757812 -5.046875 12 -5.828125 C 12.238281 -6.617188 12.359375 -7.5 12.359375 -8.46875 Z M 12.359375 -8.46875 "/></g></g></g><g fill="#000000" fill-opacity="1"><g transform="translate(159.578386, 21.144359)"><g><path d="M 17.78125 -15.046875 L 15.9375 0 L 13.5625 0 L 14.765625 -9.796875 C 14.796875 -9.984375 14.828125 -10.179688 14.859375 -10.390625 C 14.898438 -10.597656 14.945312 -10.8125 15 -11.03125 L 9.828125 -2.453125 C 9.703125 -2.265625 9.550781 -2.117188 9.375 -2.015625 C 9.195312 -1.921875 9.003906 -1.875 8.796875 -1.875 L 8.421875 -1.875 C 8.210938 -1.875 8.03125 -1.921875 7.875 -2.015625 C 7.726562 -2.117188 7.617188 -2.265625 7.546875 -2.453125 L 4.4375 -11.03125 C 4.4375 -10.8125 4.429688 -10.601562 4.421875 -10.40625 C 4.410156 -10.207031 4.394531 -10.019531 4.375 -9.84375 L 3.1875 0 L 0.796875 0 L 2.65625 -15.046875 L 4.6875 -15.046875 C 4.800781 -15.046875 4.894531 -15.039062 4.96875 -15.03125 C 5.050781 -15.019531 5.125 -15 5.1875 -14.96875 C 5.25 -14.9375 5.304688 -14.890625 5.359375 -14.828125 C 5.421875 -14.773438 5.484375 -14.703125 5.546875 -14.609375 L 8.65625 -6.015625 C 8.78125 -5.648438 8.882812 -5.273438 8.96875 -4.890625 C 9.0625 -5.085938 9.15625 -5.28125 9.25 -5.46875 C 9.34375 -5.65625 9.441406 -5.835938 9.546875 -6.015625 L 14.78125 -14.609375 C 14.863281 -14.703125 14.9375 -14.773438 15 -14.828125 C 15.0625 -14.890625 15.128906 -14.9375 15.203125 -14.96875 C 15.273438 -15 15.351562 -15.019531 15.4375 -15.03125 C 15.519531 -15.039062 15.617188 -15.046875 15.734375 -15.046875 Z M 17.78125 -15.046875 "/></g></g></g><g fill="#000000" fill-opacity="1"><g transform="translate(178.77072, 21.144359)"><g><path d="M 5.109375 -12.890625 L 4.578125 -8.609375 L 9.328125 -8.609375 L 9.078125 -6.546875 L 4.3125 -6.546875 L 3.78125 -2.15625 L 9.859375 -2.15625 L 9.578125 0 L 0.796875 0 L 2.65625 -15.046875 L 11.421875 -15.046875 L 11.15625 -12.890625 Z M 5.109375 -12.890625 "/></g></g></g><g fill="#000000" fill-opacity="1"><g transform="translate(190.833698, 21.144359)"><g/></g></g><g fill="#000000" fill-opacity="1"><g transform="translate(196.287701, 21.144359)"><g><path d="M 14.15625 -8.53125 C 14.15625 -7.28125 13.953125 -6.128906 13.546875 -5.078125 C 13.148438 -4.035156 12.59375 -3.140625 11.875 -2.390625 C 11.15625 -1.640625 10.300781 -1.050781 9.3125 -0.625 C 8.332031 -0.207031 7.257812 0 6.09375 0 L 0.796875 0 L 2.65625 -15.046875 L 7.953125 -15.046875 C 8.910156 -15.046875 9.773438 -14.878906 10.546875 -14.546875 C 11.316406 -14.222656 11.96875 -13.773438 12.5 -13.203125 C 13.03125 -12.628906 13.4375 -11.941406 13.71875 -11.140625 C 14.007812 -10.347656 14.15625 -9.476562 14.15625 -8.53125 Z M 11.390625 -8.46875 C 11.390625 -9.144531 11.304688 -9.753906 11.140625 -10.296875 C 10.972656 -10.847656 10.734375 -11.316406 10.421875 -11.703125 C 10.109375 -12.085938 9.722656 -12.382812 9.265625 -12.59375 C 8.804688 -12.800781 8.28125 -12.90625 7.6875 -12.90625 L 5.109375 -12.90625 L 3.78125 -2.15625 L 6.375 -2.15625 C 7.125 -2.15625 7.804688 -2.300781 8.421875 -2.59375 C 9.046875 -2.882812 9.578125 -3.300781 10.015625 -3.84375 C 10.453125 -4.382812 10.789062 -5.046875 11.03125 -5.828125 C 11.269531 -6.609375 11.390625 -7.488281 11.390625 -8.46875 Z M 11.390625 -8.46875 "/></g></g></g><g fill="#000000" fill-opacity="1"><g transform="translate(211.514635, 21.144359)"><g><path d="M 8.859375 -5.65625 L 7.84375 -10.8125 C 7.800781 -11.050781 7.753906 -11.328125 7.703125 -11.640625 C 7.648438 -11.953125 7.59375 -12.289062 7.53125 -12.65625 C 7.394531 -12.289062 7.257812 -11.953125 7.125 -11.640625 C 7 -11.328125 6.882812 -11.046875 6.78125 -10.796875 L 4.5 -5.65625 Z M 12.796875 0 L 10.703125 0 C 10.460938 0 10.273438 -0.0546875 10.140625 -0.171875 C 10.015625 -0.285156 9.925781 -0.429688 9.875 -0.609375 L 9.25 -3.75 L 3.640625 -3.75 L 2.25 -0.609375 C 2.175781 -0.453125 2.050781 -0.3125 1.875 -0.1875 C 1.707031 -0.0625 1.515625 0 1.296875 0 L -0.828125 0 L 6.4375 -15.046875 L 9.203125 -15.046875 Z M 12.796875 0 "/></g></g></g><g fill="#000000" fill-opacity="1"><g transform="translate(225.784055, 21.144359)"><g><path d="M 9.796875 -12.34375 C 9.691406 -12.207031 9.59375 -12.101562 9.5 -12.03125 C 9.40625 -11.96875 9.289062 -11.9375 9.15625 -11.9375 C 9.019531 -11.9375 8.878906 -11.988281 8.734375 -12.09375 C 8.585938 -12.207031 8.410156 -12.332031 8.203125 -12.46875 C 8.003906 -12.601562 7.765625 -12.726562 7.484375 -12.84375 C 7.210938 -12.957031 6.882812 -13.015625 6.5 -13.015625 C 6.125 -13.015625 5.789062 -12.957031 5.5 -12.84375 C 5.207031 -12.726562 4.960938 -12.570312 4.765625 -12.375 C 4.566406 -12.1875 4.414062 -11.957031 4.3125 -11.6875 C 4.207031 -11.425781 4.15625 -11.144531 4.15625 -10.84375 C 4.15625 -10.519531 4.238281 -10.253906 4.40625 -10.046875 C 4.570312 -9.835938 4.785156 -9.648438 5.046875 -9.484375 C 5.304688 -9.328125 5.609375 -9.1875 5.953125 -9.0625 C 6.296875 -8.9375 6.640625 -8.800781 6.984375 -8.65625 C 7.335938 -8.519531 7.679688 -8.363281 8.015625 -8.1875 C 8.359375 -8.007812 8.660156 -7.785156 8.921875 -7.515625 C 9.191406 -7.253906 9.40625 -6.9375 9.5625 -6.5625 C 9.726562 -6.195312 9.8125 -5.75 9.8125 -5.21875 C 9.8125 -4.488281 9.679688 -3.796875 9.421875 -3.140625 C 9.171875 -2.492188 8.804688 -1.925781 8.328125 -1.4375 C 7.859375 -0.945312 7.285156 -0.554688 6.609375 -0.265625 C 5.929688 0.0234375 5.171875 0.171875 4.328125 0.171875 C 3.890625 0.171875 3.457031 0.125 3.03125 0.03125 C 2.613281 -0.0625 2.21875 -0.195312 1.84375 -0.375 C 1.46875 -0.550781 1.117188 -0.757812 0.796875 -1 C 0.484375 -1.238281 0.207031 -1.507812 -0.03125 -1.8125 L 0.921875 -3.09375 C 1.003906 -3.195312 1.101562 -3.28125 1.21875 -3.34375 C 1.332031 -3.40625 1.453125 -3.4375 1.578125 -3.4375 C 1.679688 -3.4375 1.785156 -3.398438 1.890625 -3.328125 C 2.003906 -3.253906 2.125 -3.164062 2.25 -3.0625 C 2.382812 -2.96875 2.523438 -2.859375 2.671875 -2.734375 C 2.816406 -2.617188 2.984375 -2.507812 3.171875 -2.40625 C 3.367188 -2.3125 3.585938 -2.226562 3.828125 -2.15625 C 4.078125 -2.082031 4.359375 -2.046875 4.671875 -2.046875 C 5.460938 -2.046875 6.078125 -2.265625 6.515625 -2.703125 C 6.960938 -3.148438 7.1875 -3.769531 7.1875 -4.5625 C 7.1875 -4.90625 7.109375 -5.1875 6.953125 -5.40625 C 6.796875 -5.632812 6.582031 -5.820312 6.3125 -5.96875 C 6.050781 -6.125 5.75 -6.257812 5.40625 -6.375 C 5.070312 -6.488281 4.734375 -6.609375 4.390625 -6.734375 C 4.046875 -6.867188 3.703125 -7.019531 3.359375 -7.1875 C 3.023438 -7.351562 2.726562 -7.566406 2.46875 -7.828125 C 2.207031 -8.097656 1.992188 -8.425781 1.828125 -8.8125 C 1.671875 -9.207031 1.59375 -9.691406 1.59375 -10.265625 C 1.59375 -10.910156 1.710938 -11.53125 1.953125 -12.125 C 2.191406 -12.71875 2.535156 -13.238281 2.984375 -13.6875 C 3.429688 -14.144531 3.972656 -14.507812 4.609375 -14.78125 C 5.242188 -15.0625 5.957031 -15.203125 6.75 -15.203125 C 7.164062 -15.203125 7.5625 -15.160156 7.9375 -15.078125 C 8.3125 -14.992188 8.660156 -14.875 8.984375 -14.71875 C 9.316406 -14.570312 9.617188 -14.390625 9.890625 -14.171875 C 10.160156 -13.960938 10.398438 -13.726562 10.609375 -13.46875 Z M 9.796875 -12.34375 "/></g></g></g><g fill="#000000" fill-opacity="1"><g transform="translate(237.409912, 21.144359)"><g/></g></g><g fill="#000000" fill-opacity="1"><g transform="translate(242.863904, 21.144359)"><g><path d="M 5.109375 -12.890625 L 4.53125 -8.3125 L 9.65625 -8.3125 L 9.359375 -6.15625 L 4.28125 -6.15625 L 3.515625 0 L 0.796875 0 L 2.65625 -15.046875 L 11.421875 -15.046875 L 11.15625 -12.890625 Z M 5.109375 -12.890625 "/></g></g></g><g fill="#000000" fill-opacity="1"><g transform="translate(254.666673, 21.144359)"><g><path d="M 15.125 -8.53125 C 15.125 -7.695312 15.03125 -6.90625 14.84375 -6.15625 C 14.65625 -5.40625 14.390625 -4.707031 14.046875 -4.0625 C 13.710938 -3.414062 13.300781 -2.832031 12.8125 -2.3125 C 12.332031 -1.789062 11.789062 -1.34375 11.1875 -0.96875 C 10.59375 -0.601562 9.941406 -0.320312 9.234375 -0.125 C 8.535156 0.0703125 7.800781 0.171875 7.03125 0.171875 C 6.070312 0.171875 5.210938 0 4.453125 -0.34375 C 3.691406 -0.6875 3.039062 -1.15625 2.5 -1.75 C 1.96875 -2.34375 1.554688 -3.046875 1.265625 -3.859375 C 0.984375 -4.671875 0.84375 -5.550781 0.84375 -6.5 C 0.84375 -7.332031 0.929688 -8.125 1.109375 -8.875 C 1.296875 -9.632812 1.5625 -10.335938 1.90625 -10.984375 C 2.25 -11.628906 2.660156 -12.207031 3.140625 -12.71875 C 3.628906 -13.238281 4.171875 -13.6875 4.765625 -14.0625 C 5.367188 -14.4375 6.019531 -14.722656 6.71875 -14.921875 C 7.425781 -15.117188 8.164062 -15.21875 8.9375 -15.21875 C 9.894531 -15.21875 10.753906 -15.046875 11.515625 -14.703125 C 12.285156 -14.359375 12.9375 -13.890625 13.46875 -13.296875 C 14 -12.703125 14.40625 -11.992188 14.6875 -11.171875 C 14.976562 -10.359375 15.125 -9.476562 15.125 -8.53125 Z M 12.359375 -8.46875 C 12.359375 -9.144531 12.269531 -9.757812 12.09375 -10.3125 C 11.925781 -10.875 11.679688 -11.351562 11.359375 -11.75 C 11.035156 -12.144531 10.640625 -12.445312 10.171875 -12.65625 C 9.710938 -12.875 9.191406 -12.984375 8.609375 -12.984375 C 7.859375 -12.984375 7.175781 -12.832031 6.5625 -12.53125 C 5.945312 -12.226562 5.421875 -11.796875 4.984375 -11.234375 C 4.546875 -10.671875 4.207031 -9.992188 3.96875 -9.203125 C 3.726562 -8.410156 3.609375 -7.53125 3.609375 -6.5625 C 3.609375 -5.882812 3.691406 -5.265625 3.859375 -4.703125 C 4.023438 -4.148438 4.265625 -3.675781 4.578125 -3.28125 C 4.898438 -2.894531 5.289062 -2.597656 5.75 -2.390625 C 6.21875 -2.179688 6.75 -2.078125 7.34375 -2.078125 C 8.09375 -2.078125 8.773438 -2.226562 9.390625 -2.53125 C 10.015625 -2.832031 10.546875 -3.257812 10.984375 -3.8125 C 11.421875 -4.375 11.757812 -5.046875 12 -5.828125 C 12.238281 -6.617188 12.359375 -7.5 12.359375 -8.46875 Z M 12.359375 -8.46875 "/></g></g></g><g fill="#000000" fill-opacity="1"><g transform="translate(271.23624, 21.144359)"><g><path d="M 6 -7.859375 C 6.539062 -7.859375 7.003906 -7.9375 7.390625 -8.09375 C 7.785156 -8.25 8.113281 -8.460938 8.375 -8.734375 C 8.632812 -9.003906 8.828125 -9.320312 8.953125 -9.6875 C 9.078125 -10.0625 9.140625 -10.460938 9.140625 -10.890625 C 9.140625 -11.535156 8.9375 -12.039062 8.53125 -12.40625 C 8.125 -12.78125 7.5 -12.96875 6.65625 -12.96875 L 5.078125 -12.96875 L 4.453125 -7.859375 Z M 6.90625 -15.046875 C 7.769531 -15.046875 8.515625 -14.953125 9.140625 -14.765625 C 9.765625 -14.585938 10.273438 -14.332031 10.671875 -14 C 11.066406 -13.664062 11.359375 -13.269531 11.546875 -12.8125 C 11.734375 -12.363281 11.828125 -11.863281 11.828125 -11.3125 C 11.828125 -10.738281 11.742188 -10.191406 11.578125 -9.671875 C 11.410156 -9.160156 11.175781 -8.695312 10.875 -8.28125 C 10.570312 -7.863281 10.195312 -7.5 9.75 -7.1875 C 9.300781 -6.875 8.796875 -6.632812 8.234375 -6.46875 C 8.398438 -6.363281 8.546875 -6.242188 8.671875 -6.109375 C 8.796875 -5.972656 8.910156 -5.804688 9.015625 -5.609375 L 11.703125 0 L 9.265625 0 C 8.804688 0 8.5 -0.179688 8.34375 -0.546875 L 6.140625 -5.421875 C 6.054688 -5.597656 5.953125 -5.726562 5.828125 -5.8125 C 5.710938 -5.894531 5.523438 -5.9375 5.265625 -5.9375 L 4.21875 -5.9375 L 3.484375 0 L 0.796875 0 L 2.625 -15.046875 Z M 6.90625 -15.046875 "/></g></g></g><g fill="#000000" fill-opacity="1"><g transform="translate(284.610624, 21.144359)"><g><path d="M 17.78125 -15.046875 L 15.9375 0 L 13.5625 0 L 14.765625 -9.796875 C 14.796875 -9.984375 14.828125 -10.179688 14.859375 -10.390625 C 14.898438 -10.597656 14.945312 -10.8125 15 -11.03125 L 9.828125 -2.453125 C 9.703125 -2.265625 9.550781 -2.117188 9.375 -2.015625 C 9.195312 -1.921875 9.003906 -1.875 8.796875 -1.875 L 8.421875 -1.875 C 8.210938 -1.875 8.03125 -1.921875 7.875 -2.015625 C 7.726562 -2.117188 7.617188 -2.265625 7.546875 -2.453125 L 4.4375 -11.03125 C 4.4375 -10.8125 4.429688 -10.601562 4.421875 -10.40625 C 4.410156 -10.207031 4.394531 -10.019531 4.375 -9.84375 L 3.1875 0 L 0.796875 0 L 2.65625 -15.046875 L 4.6875 -15.046875 C 4.800781 -15.046875 4.894531 -15.039062 4.96875 -15.03125 C 5.050781 -15.019531 5.125 -15 5.1875 -14.96875 C 5.25 -14.9375 5.304688 -14.890625 5.359375 -14.828125 C 5.421875 -14.773438 5.484375 -14.703125 5.546875 -14.609375 L 8.65625 -6.015625 C 8.78125 -5.648438 8.882812 -5.273438 8.96875 -4.890625 C 9.0625 -5.085938 9.15625 -5.28125 9.25 -5.46875 C 9.34375 -5.65625 9.441406 -5.835938 9.546875 -6.015625 L 14.78125 -14.609375 C 14.863281 -14.703125 14.9375 -14.773438 15 -14.828125 C 15.0625 -14.890625 15.128906 -14.9375 15.203125 -14.96875 C 15.273438 -15 15.351562 -15.019531 15.4375 -15.03125 C 15.519531 -15.039062 15.617188 -15.046875 15.734375 -15.046875 Z M 17.78125 -15.046875 "/></g></g></g><g fill="#000000" fill-opacity="1"><g transform="translate(303.802958, 21.144359)"><g><path d="M 8.859375 -5.65625 L 7.84375 -10.8125 C 7.800781 -11.050781 7.753906 -11.328125 7.703125 -11.640625 C 7.648438 -11.953125 7.59375 -12.289062 7.53125 -12.65625 C 7.394531 -12.289062 7.257812 -11.953125 7.125 -11.640625 C 7 -11.328125 6.882812 -11.046875 6.78125 -10.796875 L 4.5 -5.65625 Z M 12.796875 0 L 10.703125 0 C 10.460938 0 10.273438 -0.0546875 10.140625 -0.171875 C 10.015625 -0.285156 9.925781 -0.429688 9.875 -0.609375 L 9.25 -3.75 L 3.640625 -3.75 L 2.25 -0.609375 C 2.175781 -0.453125 2.050781 -0.3125 1.875 -0.1875 C 1.707031 -0.0625 1.515625 0 1.296875 0 L -0.828125 0 L 6.4375 -15.046875 L 9.203125 -15.046875 Z M 12.796875 0 "/></g></g></g><g fill="#000000" fill-opacity="1"><g transform="translate(318.072377, 21.144359)"><g><path d="M 9.796875 -12.34375 C 9.691406 -12.207031 9.59375 -12.101562 9.5 -12.03125 C 9.40625 -11.96875 9.289062 -11.9375 9.15625 -11.9375 C 9.019531 -11.9375 8.878906 -11.988281 8.734375 -12.09375 C 8.585938 -12.207031 8.410156 -12.332031 8.203125 -12.46875 C 8.003906 -12.601562 7.765625 -12.726562 7.484375 -12.84375 C 7.210938 -12.957031 6.882812 -13.015625 6.5 -13.015625 C 6.125 -13.015625 5.789062 -12.957031 5.5 -12.84375 C 5.207031 -12.726562 4.960938 -12.570312 4.765625 -12.375 C 4.566406 -12.1875 4.414062 -11.957031 4.3125 -11.6875 C 4.207031 -11.425781 4.15625 -11.144531 4.15625 -10.84375 C 4.15625 -10.519531 4.238281 -10.253906 4.40625 -10.046875 C 4.570312 -9.835938 4.785156 -9.648438 5.046875 -9.484375 C 5.304688 -9.328125 5.609375 -9.1875 5.953125 -9.0625 C 6.296875 -8.9375 6.640625 -8.800781 6.984375 -8.65625 C 7.335938 -8.519531 7.679688 -8.363281 8.015625 -8.1875 C 8.359375 -8.007812 8.660156 -7.785156 8.921875 -7.515625 C 9.191406 -7.253906 9.40625 -6.9375 9.5625 -6.5625 C 9.726562 -6.195312 9.8125 -5.75 9.8125 -5.21875 C 9.8125 -4.488281 9.679688 -3.796875 9.421875 -3.140625 C 9.171875 -2.492188 8.804688 -1.925781 8.328125 -1.4375 C 7.859375 -0.945312 7.285156 -0.554688 6.609375 -0.265625 C 5.929688 0.0234375 5.171875 0.171875 4.328125 0.171875 C 3.890625 0.171875 3.457031 0.125 3.03125 0.03125 C 2.613281 -0.0625 2.21875 -0.195312 1.84375 -0.375 C 1.46875 -0.550781 1.117188 -0.757812 0.796875 -1 C 0.484375 -1.238281 0.207031 -1.507812 -0.03125 -1.8125 L 0.921875 -3.09375 C 1.003906 -3.195312 1.101562 -3.28125 1.21875 -3.34375 C 1.332031 -3.40625 1.453125 -3.4375 1.578125 -3.4375 C 1.679688 -3.4375 1.785156 -3.398438 1.890625 -3.328125 C 2.003906 -3.253906 2.125 -3.164062 2.25 -3.0625 C 2.382812 -2.96875 2.523438 -2.859375 2.671875 -2.734375 C 2.816406 -2.617188 2.984375 -2.507812 3.171875 -2.40625 C 3.367188 -2.3125 3.585938 -2.226562 3.828125 -2.15625 C 4.078125 -2.082031 4.359375 -2.046875 4.671875 -2.046875 C 5.460938 -2.046875 6.078125 -2.265625 6.515625 -2.703125 C 6.960938 -3.148438 7.1875 -3.769531 7.1875 -4.5625 C 7.1875 -4.90625 7.109375 -5.1875 6.953125 -5.40625 C 6.796875 -5.632812 6.582031 -5.820312 6.3125 -5.96875 C 6.050781 -6.125 5.75 -6.257812 5.40625 -6.375 C 5.070312 -6.488281 4.734375 -6.609375 4.390625 -6.734375 C 4.046875 -6.867188 3.703125 -7.019531 3.359375 -7.1875 C 3.023438 -7.351562 2.726562 -7.566406 2.46875 -7.828125 C 2.207031 -8.097656 1.992188 -8.425781 1.828125 -8.8125 C 1.671875 -9.207031 1.59375 -9.691406 1.59375 -10.265625 C 1.59375 -10.910156 1.710938 -11.53125 1.953125 -12.125 C 2.191406 -12.71875 2.535156 -13.238281 2.984375 -13.6875 C 3.429688 -14.144531 3.972656 -14.507812 4.609375 -14.78125 C 5.242188 -15.0625 5.957031 -15.203125 6.75 -15.203125 C 7.164062 -15.203125 7.5625 -15.160156 7.9375 -15.078125 C 8.3125 -14.992188 8.660156 -14.875 8.984375 -14.71875 C 9.316406 -14.570312 9.617188 -14.390625 9.890625 -14.171875 C 10.160156 -13.960938 10.398438 -13.726562 10.609375 -13.46875 Z M 9.796875 -12.34375 "/></g></g></g><g fill="#000000" fill-opacity="1"><g transform="translate(329.698212, 21.144359)"><g><path d="M 4.921875 -15.046875 L 4.1875 -9.078125 C 4.113281 -8.453125 4.003906 -7.832031 3.859375 -7.21875 C 3.722656 -6.613281 3.566406 -5.96875 3.390625 -5.28125 L 1.71875 -5.28125 C 1.707031 -5.96875 1.707031 -6.613281 1.71875 -7.21875 C 1.738281 -7.832031 1.789062 -8.453125 1.875 -9.078125 L 2.609375 -15.046875 Z M 0.65625 -1.421875 C 0.65625 -1.628906 0.691406 -1.832031 0.765625 -2.03125 C 0.847656 -2.226562 0.957031 -2.394531 1.09375 -2.53125 C 1.238281 -2.664062 1.40625 -2.773438 1.59375 -2.859375 C 1.789062 -2.941406 2.003906 -2.984375 2.234375 -2.984375 C 2.441406 -2.984375 2.640625 -2.941406 2.828125 -2.859375 C 3.023438 -2.773438 3.195312 -2.664062 3.34375 -2.53125 C 3.488281 -2.394531 3.601562 -2.226562 3.6875 -2.03125 C 3.769531 -1.832031 3.8125 -1.628906 3.8125 -1.421875 C 3.8125 -1.191406 3.769531 -0.984375 3.6875 -0.796875 C 3.601562 -0.609375 3.488281 -0.441406 3.34375 -0.296875 C 3.195312 -0.160156 3.023438 -0.0546875 2.828125 0.015625 C 2.640625 0.0976562 2.441406 0.140625 2.234375 0.140625 C 2.003906 0.140625 1.789062 0.0976562 1.59375 0.015625 C 1.40625 -0.0546875 1.238281 -0.160156 1.09375 -0.296875 C 0.957031 -0.441406 0.847656 -0.609375 0.765625 -0.796875 C 0.691406 -0.984375 0.65625 -1.191406 0.65625 -1.421875 Z M 0.65625 -1.421875 "/></g></g></g></g></g></g></g></g><g clip-path="url(#c998602e04)"><g clip-path="url(#cbaae26e1e)"><g clip-path="url(#939748e52c)"><path fill="#ffd200" d="M 144.527344 77.734375 C 142.148438 80.6875 140.628906 84.191406 139.320312 87.71875 C 137.976562 91.34375 136.792969 95.195312 137.085938 99.105469 C 137.363281 102.886719 139.027344 106.363281 141.035156 109.511719 C 143.007812 112.605469 145.339844 115.449219 147.828125 118.140625 C 144.019531 117.074219 140.121094 116.308594 136.148438 116.65625 C 131.75 117.039062 127.402344 118.535156 123.761719 121.042969 C 122.019531 122.246094 120.355469 123.296875 118.925781 124.859375 C 117.554688 126.359375 116.199219 128.375 115.398438 130.265625 C 113.789062 134.058594 113.953125 138.515625 114.101562 142.546875 C 114.1875 144.828125 114.371094 147.101562 114.527344 149.378906 C 114.582031 150.230469 114.640625 151.082031 114.652344 151.933594 C 114.660156 152.21875 114.660156 152.507812 114.640625 152.792969 C 114.636719 152.863281 114.601562 153 114.574219 153.136719 C 114.554688 153.132812 114.535156 153.125 114.519531 153.117188 C 114.027344 152.886719 113.5625 152.585938 113.105469 152.289062 C 111.585938 151.3125 110.09375 150.304688 108.542969 149.378906 C 104.816406 147.140625 100.8125 145.289062 96.578125 144.242188 C 92.222656 143.167969 87.710938 143.105469 83.304688 143.898438 C 78.789062 144.710938 74.378906 146.144531 70.609375 148.816406 C 67.105469 151.300781 64.152344 154.554688 61.980469 158.253906 C 61.785156 158.585938 61.605469 158.925781 61.421875 159.261719 C 60.414062 152.929688 57.773438 147.128906 53.933594 141.933594 C 53.046875 140.730469 52.160156 139.535156 50.976562 138.605469 C 49.691406 137.597656 48.214844 136.816406 46.722656 136.15625 C 43.375 134.679688 40.699219 133.515625 37.089844 132.96875 C 33.609375 132.4375 29.15625 132.191406 25.601562 132.355469 C 27.726562 129.835938 29.464844 126.980469 30.554688 123.859375 C 31.910156 119.980469 32.367188 115.863281 32.289062 111.769531 C 32.132812 103.875 28.652344 95.976562 22.203125 91.222656 C 19.695312 89.378906 16.855469 87.949219 13.816406 87.433594 C 18.894531 85.222656 23.253906 81.515625 26.269531 76.832031 C 28.011719 74.125 29.277344 71.15625 29.515625 67.917969 C 29.769531 64.492188 29.566406 60.5625 28.554688 57.292969 C 27.597656 54.1875 25.839844 51.703125 24.25 48.871094 C 27.773438 50.054688 31.535156 50.503906 35.199219 51.03125 C 37.550781 51.371094 39.902344 51.605469 42.28125 51.578125 C 44.558594 51.554688 46.832031 51.339844 49.09375 51.074219 C 51.171875 50.828125 53.171875 50.472656 55.113281 49.667969 C 57.066406 48.855469 58.886719 47.730469 60.539062 46.417969 C 63.914062 43.730469 66.671875 40.289062 68.761719 36.527344 C 70.269531 33.816406 71.667969 30.648438 72.195312 27.4375 C 73.058594 29.832031 74.253906 32.082031 75.972656 34.035156 C 78.511719 36.914062 81.804688 38.941406 85.539062 39.839844 C 87.546875 40.328125 89.609375 40.511719 91.667969 40.628906 C 93.917969 40.753906 96.167969 40.933594 98.421875 41.039062 C 102.8125 41.246094 106.960938 41.136719 111.226562 39.90625 C 113 39.394531 114.996094 38.5625 116.402344 37.347656 C 116.804688 37 117.445312 36.9375 117.769531 36.539062 C 117.5 39.535156 117.554688 42.558594 117.777344 45.570312 C 117.933594 47.660156 118.199219 49.746094 118.765625 51.769531 C 119.324219 53.777344 120.238281 55.683594 121.316406 57.464844 C 125.601562 64.558594 132.734375 69.675781 140.613281 72.085938 C 142.855469 72.769531 145.1875 73.289062 147.527344 73.472656 C 147.964844 73.507812 148.410156 73.53125 148.863281 73.539062 C 147.234375 74.734375 145.777344 76.183594 144.527344 77.734375 Z M 144.527344 77.734375 C 142.148438 80.6875 140.628906 84.191406 139.320312 87.71875 C 137.976562 91.34375 136.792969 95.195312 137.085938 99.105469 C 137.363281 102.886719 139.027344 106.363281 141.035156 109.511719 C 143.007812 112.605469 145.339844 115.449219 147.828125 118.140625 C 144.019531 117.074219 140.121094 116.308594 136.148438 116.65625 C 131.75 117.039062 127.402344 118.535156 123.761719 121.042969 C 122.019531 122.246094 120.355469 123.296875 118.925781 124.859375 C 117.554688 126.359375 116.199219 128.375 115.398438 130.265625 C 113.789062 134.058594 113.953125 138.515625 114.101562 142.546875 C 114.1875 144.828125 114.371094 147.101562 114.527344 149.378906 C 114.582031 150.230469 114.640625 151.082031 114.652344 151.933594 C 114.660156 152.21875 114.660156 152.507812 114.640625 152.792969 C 114.636719 152.863281 114.601562 153 114.574219 153.136719 C 114.554688 153.132812 114.535156 153.125 114.519531 153.117188 C 114.027344 152.886719 113.5625 152.585938 113.105469 152.289062 C 111.585938 151.3125 110.09375 150.304688 108.542969 149.378906 C 104.816406 147.140625 100.8125 145.289062 96.578125 144.242188 C 92.222656 143.167969 87.710938 143.105469 83.304688 143.898438 C 78.789062 144.710938 74.378906 146.144531 70.609375 148.816406 C 67.105469 151.300781 64.152344 154.554688 61.980469 158.253906 C 61.785156 158.585938 61.605469 158.925781 61.421875 159.261719 C 60.414062 152.929688 57.773438 147.128906 53.933594 141.933594 C 53.046875 140.730469 52.160156 139.535156 50.976562 138.605469 C 49.691406 137.597656 48.214844 136.816406 46.722656 136.15625 C 43.375 134.679688 40.699219 133.515625 37.089844 132.96875 C 33.609375 132.4375 29.15625 132.191406 25.601562 132.355469 C 27.726562 129.835938 29.464844 126.980469 30.554688 123.859375 C 31.910156 119.980469 32.367188 115.863281 32.289062 111.769531 C 32.132812 103.875 28.652344 95.976562 22.203125 91.222656 C 19.695312 89.378906 16.855469 87.949219 13.816406 87.433594 C 18.894531 85.222656 23.253906 81.515625 26.269531 76.832031 C 28.011719 74.125 29.277344 71.15625 29.515625 67.917969 C 29.769531 64.492188 29.566406 60.5625 28.554688 57.292969 C 27.597656 54.1875 25.839844 51.703125 24.25 48.871094 C 27.773438 50.054688 31.535156 50.503906 35.199219 51.03125 C 37.550781 51.371094 39.902344 51.605469 42.28125 51.578125 C 44.558594 51.554688 46.832031 51.339844 49.09375 51.074219 C 51.171875 50.828125 53.171875 50.472656 55.113281 49.667969 C 57.066406 48.855469 58.886719 47.730469 60.539062 46.417969 C 63.914062 43.730469 66.671875 40.289062 68.761719 36.527344 C 70.269531 33.816406 71.667969 30.648438 72.195312 27.4375 C 73.058594 29.832031 74.253906 32.082031 75.972656 34.035156 C 78.511719 36.914062 81.804688 38.941406 85.539062 39.839844 C 87.546875 40.328125 89.609375 40.511719 91.667969 40.628906 C 93.917969 40.753906 96.167969 40.933594 98.421875 41.039062 C 102.8125 41.246094 106.960938 41.136719 111.226562 39.90625 C 113 39.394531 114.996094 38.5625 116.402344 37.347656 C 116.804688 37 117.445312 36.9375 117.769531 36.539062 C 117.5 39.535156 117.554688 42.558594 117.777344 45.570312 C 117.933594 47.660156 118.199219 49.746094 118.765625 51.769531 C 119.324219 53.777344 120.238281 55.683594 121.316406 57.464844 C 125.601562 64.558594 132.734375 69.675781 140.613281 72.085938 C 142.855469 72.769531 145.1875 73.289062 147.527344 73.472656 C 147.964844 73.507812 148.410156 73.53125 148.863281 73.539062 C 147.234375 74.734375 145.777344 76.183594 144.527344 77.734375 Z M 144.527344 77.734375 " fill-opacity="1" fill-rule="nonzero"/></g></g></g><g clip-path="url(#180aff916a)"><g clip-path="url(#1d410387b5)"><g clip-path="url(#2f7be13294)"><path fill="#fff1e1" d="M 115.097656 81.410156 C 113.863281 78.328125 112.257812 75.296875 110.253906 72.640625 C 108.269531 70.007812 105.796875 67.824219 103.003906 66.085938 C 101.679688 65.265625 100.285156 64.5625 98.851562 63.960938 C 98.792969 63.882812 98.707031 63.8125 98.59375 63.765625 C 92.042969 61.050781 85.125 60.453125 77.910156 62.070312 C 74.457031 62.84375 71.234375 64.089844 68.078125 65.683594 C 65.03125 67.214844 61.753906 69.652344 59.171875 71.910156 C 56.640625 74.121094 54.550781 76.886719 52.695312 79.675781 C 50.8125 82.507812 49.144531 85.5625 48.554688 88.949219 C 47.957031 92.382812 48.035156 95.84375 48.640625 99.21875 C 48.4375 99.472656 48.546875 99.824219 48.796875 100.03125 C 49.511719 103.496094 50.785156 106.855469 52.480469 109.980469 C 54.078125 112.929688 56.019531 115.734375 58.546875 117.964844 C 61.007812 120.136719 63.972656 121.71875 66.980469 122.992188 C 70.300781 124.402344 73.070312 125.703125 76.636719 126.238281 C 80.28125 126.785156 84.789062 126.65625 88.433594 126.027344 C 91.894531 125.433594 95.21875 124.03125 98.285156 122.355469 C 101.28125 120.710938 104.074219 118.699219 106.566406 116.359375 C 107.304688 115.664062 108 114.9375 108.671875 114.1875 C 108.867188 114.128906 108.992188 113.960938 109.042969 113.765625 C 110.550781 112.023438 112.011719 110.542969 113.269531 108.597656 C 114.152344 107.230469 114.867188 105.476562 115.445312 103.953125 C 116.027344 102.410156 116.4375 100.800781 116.691406 99.171875 C 117.230469 95.730469 117.164062 92.171875 117 88.699219 C 116.882812 86.21875 116.007812 83.695312 115.097656 81.410156 Z M 85.457031 98.890625 C 85.03125 101.511719 83.117188 101.476562 82.375 98.207031 C 81.628906 94.933594 82.699219 93.632812 83.394531 93.617188 C 84.972656 93.574219 85.878906 96.265625 85.457031 98.890625 Z M 85.457031 98.890625 " fill-opacity="1" fill-rule="nonzero"/></g></g></g><g clip-path="url(#dca30036a8)"><g clip-path="url(#ea26d963bf)"><g clip-path="url(#6187f56c2e)"><path fill="#ff7134" d="M 109.15625 114.207031 C 109.15625 114.207031 100.917969 110.644531 104.019531 99.410156 C 107.125 88.175781 117.207031 90.726562 117.207031 90.726562 C 118.875 105.273438 109.15625 114.207031 109.15625 114.207031 Z M 60.464844 119.890625 C 60.464844 119.890625 66.175781 116.050781 62.164062 106.066406 C 58.152344 96.085938 48.558594 99.773438 48.558594 99.773438 C 50.355469 111.875 60.464844 119.890625 60.464844 119.890625 Z M 60.464844 119.890625 " fill-opacity="1" fill-rule="nonzero"/></g></g></g><g clip-path="url(#9f56edb6f5)"><g clip-path="url(#df7edf949d)"><g clip-path="url(#fe76254ff0)"><path fill="#000000" d="M 152.3125 71.652344 C 151.027344 72.308594 148.484375 72.535156 147.070312 72.441406 C 145.074219 72.308594 143.085938 71.902344 141.15625 71.382812 C 137.339844 70.355469 133.8125 68.601562 130.550781 66.382812 C 127.390625 64.226562 124.765625 61.566406 122.625 58.394531 C 121.511719 56.742188 120.558594 54.976562 119.886719 53.097656 C 119.214844 51.222656 118.894531 49.246094 118.699219 47.269531 C 118.265625 42.8125 117.980469 37.644531 118.84375 33.238281 C 119.011719 32.375 118.046875 32.871094 117.785156 33.652344 C 115.835938 39.464844 105.632812 40.699219 99.476562 40.492188 C 97.320312 40.417969 95.164062 40.253906 93.011719 40.117188 C 91.117188 39.996094 89.222656 39.910156 87.347656 39.59375 C 83.847656 39.003906 80.679688 37.542969 78.105469 35.074219 C 75.0625 32.160156 73.4375 28.320312 72.519531 24.269531 C 72.480469 24.089844 72.382812 23.957031 72.261719 23.867188 C 72.117188 23.738281 71.914062 23.691406 71.722656 23.714844 C 71.519531 23.730469 71.332031 23.828125 71.242188 24 C 71.171875 24.109375 71.136719 24.242188 71.15625 24.40625 C 71.585938 28.1875 70.089844 32.148438 68.425781 35.464844 C 66.597656 39.121094 64.085938 42.511719 61 45.203125 C 57.945312 47.871094 54.382812 49.726562 50.328125 50.21875 C 46.011719 50.746094 41.753906 51.035156 37.421875 50.480469 C 34.976562 50.167969 32.523438 49.8125 30.101562 49.367188 C 27.960938 48.972656 25.84375 48.453125 23.84375 47.597656 C 23.207031 47.328125 22.6875 48.027344 23.023438 48.585938 C 26.324219 54.050781 29.035156 60.386719 28.996094 66.875 C 28.960938 73.023438 25.128906 78.597656 20.550781 82.429688 C 17.847656 84.691406 14.703125 86.339844 11.335938 87.355469 C 10.597656 87.578125 10.648438 88.394531 11.371094 88.347656 C 18.554688 87.898438 25.28125 93.691406 28.570312 99.640625 C 30.433594 103.011719 31.441406 106.699219 31.632812 110.535156 C 31.824219 114.355469 31.492188 118.261719 30.382812 121.929688 C 29.21875 125.789062 27.410156 129.289062 24.671875 132.222656 C 24.28125 132.644531 24.324219 133.304688 24.878906 133.238281 C 28.328125 132.828125 31.863281 133.339844 35.28125 133.824219 C 38.695312 134.308594 42.0625 134.90625 45.285156 136.167969 C 46.792969 136.753906 48.292969 137.429688 49.652344 138.316406 C 50.875 139.113281 51.789062 140.074219 52.671875 141.226562 C 54.71875 143.898438 56.539062 146.75 57.902344 149.832031 C 59.414062 153.253906 60.3125 157.828125 60.675781 161.546875 C 60.742188 162.203125 61.664062 161.402344 61.941406 160.808594 C 63.757812 156.933594 66.257812 153.476562 69.515625 150.683594 C 71.183594 149.253906 73.023438 147.984375 75.015625 147.042969 C 77.054688 146.082031 79.226562 145.417969 81.414062 144.90625 C 85.722656 143.894531 90.171875 143.621094 94.53125 144.460938 C 98.742188 145.269531 102.738281 146.980469 106.453125 149.09375 C 108.082031 150.019531 109.652344 151.039062 111.21875 152.066406 C 112.082031 152.632812 114.253906 154.511719 115.285156 154.75 C 116.324219 154.996094 115.96875 153.097656 115.886719 152.234375 C 115.683594 150.199219 115.441406 149.089844 115.332031 147.566406 C 115.023438 143.210938 114.617188 138.753906 115.140625 134.398438 C 115.359375 132.578125 116.230469 130.484375 117.191406 128.898438 C 118.273438 127.105469 119.355469 125.691406 120.859375 124.246094 C 123.9375 121.28125 127.746094 119.214844 131.902344 118.210938 C 136.472656 117.105469 140.984375 117.582031 145.484375 118.753906 C 146.648438 119.054688 147.800781 119.394531 148.953125 119.746094 C 149.660156 119.964844 149.886719 118.992188 149.488281 118.582031 C 146.847656 115.867188 144.339844 112.992188 142.195312 109.859375 C 140.226562 106.988281 138.960938 103.945312 138.359375 100.46875 C 137.71875 96.757812 138.097656 92.914062 139.328125 89.421875 C 140.480469 86.160156 141.773438 82.820312 143.773438 79.972656 C 145.785156 77.113281 148.527344 74.464844 151.785156 73.085938 C 152.527344 72.707031 153.117188 71.3125 152.3125 71.652344 Z M 143.65625 77.933594 C 141.3125 80.84375 139.8125 84.296875 138.519531 87.777344 C 137.199219 91.351562 136.03125 95.148438 136.316406 99.007812 C 136.59375 102.730469 138.234375 106.160156 140.214844 109.265625 C 142.15625 112.316406 144.457031 115.117188 146.910156 117.773438 C 143.15625 116.71875 139.3125 115.964844 135.394531 116.308594 C 131.058594 116.6875 126.773438 118.160156 123.183594 120.632812 C 121.460938 121.820312 119.824219 122.859375 118.414062 124.398438 C 117.058594 125.878906 115.726562 127.863281 114.9375 129.730469 C 113.351562 133.464844 113.507812 137.859375 113.65625 141.835938 C 113.742188 144.085938 113.921875 146.328125 114.074219 148.574219 C 114.132812 149.410156 114.1875 150.25 114.203125 151.089844 C 114.207031 151.371094 114.210938 151.65625 114.191406 151.9375 C 114.1875 152.007812 114.152344 152.144531 114.121094 152.277344 C 114.105469 152.273438 114.085938 152.265625 114.070312 152.257812 C 113.582031 152.03125 113.125 151.734375 112.675781 151.441406 C 111.179688 150.480469 109.703125 149.488281 108.179688 148.570312 C 104.5 146.367188 100.550781 144.542969 96.378906 143.507812 C 92.085938 142.449219 87.636719 142.386719 83.292969 143.167969 C 78.839844 143.972656 74.492188 145.386719 70.773438 148.019531 C 67.320312 150.46875 64.40625 153.675781 62.265625 157.324219 C 62.074219 157.652344 61.898438 157.984375 61.71875 158.316406 C 60.722656 152.070312 58.121094 146.351562 54.332031 141.230469 C 53.457031 140.046875 52.585938 138.867188 51.417969 137.949219 C 50.148438 136.953125 48.695312 136.1875 47.222656 135.535156 C 43.921875 134.078125 41.285156 132.929688 37.726562 132.390625 C 34.292969 131.871094 29.902344 131.625 26.398438 131.789062 C 28.496094 129.300781 30.210938 126.488281 31.28125 123.410156 C 32.617188 119.585938 33.070312 115.527344 32.992188 111.492188 C 32.835938 103.707031 29.40625 95.917969 23.046875 91.234375 C 20.574219 89.414062 17.773438 88.003906 14.777344 87.496094 C 19.785156 85.316406 24.082031 81.660156 27.054688 77.042969 C 28.777344 74.371094 30.023438 71.449219 30.257812 68.253906 C 30.507812 64.875 30.308594 61.003906 29.3125 57.777344 C 28.363281 54.714844 26.632812 52.269531 25.066406 49.472656 C 28.539062 50.640625 32.25 51.082031 35.863281 51.605469 C 38.179688 51.9375 40.5 52.171875 42.84375 52.144531 C 45.089844 52.121094 47.328125 51.910156 49.5625 51.644531 C 51.609375 51.40625 53.582031 51.054688 55.496094 50.257812 C 57.421875 49.457031 59.21875 48.351562 60.847656 47.054688 C 64.171875 44.40625 66.894531 41.011719 68.953125 37.304688 C 70.4375 34.632812 71.816406 31.503906 72.335938 28.339844 C 73.191406 30.703125 74.367188 32.917969 76.066406 34.847656 C 78.566406 37.683594 81.8125 39.683594 85.496094 40.570312 C 87.476562 41.050781 89.507812 41.234375 91.539062 41.347656 C 93.757812 41.472656 95.976562 41.648438 98.195312 41.753906 C 102.527344 41.957031 106.617188 41.847656 110.824219 40.636719 C 112.570312 40.132812 114.539062 39.308594 115.925781 38.109375 C 116.320312 37.769531 116.953125 37.707031 117.277344 37.316406 C 117.007812 40.269531 117.0625 43.25 117.28125 46.21875 C 117.433594 48.277344 117.699219 50.335938 118.253906 52.332031 C 118.808594 54.3125 119.707031 56.191406 120.769531 57.949219 C 124.996094 64.941406 132.027344 69.988281 139.796875 72.363281 C 142.007812 73.039062 144.308594 73.550781 146.617188 73.730469 C 147.042969 73.761719 147.484375 73.789062 147.929688 73.796875 C 146.324219 74.976562 144.890625 76.402344 143.65625 77.933594 Z M 115.914062 81.09375 C 114.652344 77.929688 113.003906 74.824219 110.949219 72.097656 C 108.917969 69.402344 106.382812 67.160156 103.515625 65.382812 C 102.160156 64.539062 100.730469 63.820312 99.257812 63.199219 C 99.195312 63.121094 99.113281 63.050781 98.996094 63 C 92.277344 60.214844 85.183594 59.605469 77.789062 61.261719 C 74.246094 62.054688 70.941406 63.335938 67.703125 64.964844 C 64.582031 66.539062 61.222656 69.039062 58.574219 71.347656 C 55.976562 73.617188 53.835938 76.453125 51.9375 79.3125 C 50.003906 82.21875 48.292969 85.351562 47.6875 88.820312 C 47.078125 92.34375 47.15625 95.890625 47.777344 99.351562 C 47.570312 99.613281 47.683594 99.972656 47.9375 100.183594 C 48.667969 103.738281 49.972656 107.183594 51.714844 110.386719 C 53.351562 113.40625 55.34375 116.285156 57.933594 118.570312 C 60.457031 120.800781 63.496094 122.417969 66.578125 123.726562 C 69.984375 125.171875 72.824219 126.507812 76.480469 127.054688 C 80.21875 127.613281 84.839844 127.480469 88.578125 126.839844 C 92.125 126.230469 95.535156 124.792969 98.679688 123.070312 C 101.75 121.386719 104.613281 119.324219 107.167969 116.925781 C 107.925781 116.214844 108.640625 115.46875 109.328125 114.699219 C 109.527344 114.636719 109.65625 114.46875 109.707031 114.265625 C 111.253906 112.476562 112.753906 110.960938 114.042969 108.964844 C 114.949219 107.566406 115.679688 105.769531 116.269531 104.203125 C 116.871094 102.621094 117.289062 100.972656 117.550781 99.300781 C 118.105469 95.773438 118.03125 92.125 117.867188 88.566406 C 117.746094 86.023438 116.851562 83.433594 115.914062 81.09375 Z M 55.480469 113.898438 C 52.445312 109.78125 50.273438 105.023438 49.253906 100.027344 C 50.945312 99.328125 53.160156 99.453125 54.789062 100.089844 C 56.46875 100.738281 58.78125 101.726562 59.921875 103.15625 C 61.394531 105.003906 61.996094 107.332031 62.605469 109.605469 C 62.96875 110.960938 63.3125 112.515625 63.039062 113.917969 C 62.839844 114.921875 62.460938 115.890625 62 116.804688 C 61.621094 117.558594 61.160156 118.339844 60.527344 118.921875 C 58.605469 117.515625 56.914062 115.84375 55.480469 113.898438 Z M 93.375 124.085938 C 91.746094 124.714844 90.078125 125.246094 88.355469 125.535156 C 86.574219 125.835938 84.761719 125.933594 82.960938 125.910156 C 79.304688 125.855469 75.644531 125.292969 72.128906 124.300781 C 68.832031 123.371094 65.59375 122.019531 62.628906 120.296875 C 62.292969 120.097656 61.964844 119.894531 61.640625 119.6875 C 62.894531 118.421875 63.671875 116.585938 64.148438 114.9375 C 64.628906 113.273438 64.429688 111.636719 64.050781 109.96875 C 63.472656 107.429688 62.414062 105.011719 60.90625 102.882812 C 59.644531 101.101562 57.601562 99.828125 55.613281 98.992188 C 53.601562 98.148438 51.117188 97.972656 49.015625 98.722656 C 48.785156 97.285156 48.640625 95.828125 48.609375 94.363281 C 48.53125 90.898438 49.035156 87.507812 50.535156 84.367188 C 52.058594 81.183594 54.144531 78.230469 56.402344 75.527344 C 57.394531 74.34375 58.4375 73.191406 59.621094 72.191406 C 60.871094 71.136719 62.230469 70.210938 63.628906 69.359375 C 66.660156 67.507812 69.886719 65.941406 73.171875 64.589844 C 76.367188 63.277344 79.640625 62.160156 83.09375 61.816406 C 86.648438 61.464844 90.242188 61.800781 93.707031 62.652344 C 95.222656 63.023438 96.703125 63.507812 98.152344 64.089844 C 98.210938 64.164062 98.292969 64.230469 98.40625 64.273438 C 101.402344 65.503906 104.195312 67.171875 106.617188 69.328125 C 109.074219 71.519531 110.988281 74.207031 112.558594 77.085938 C 114.074219 79.871094 115.332031 82.828125 116.09375 85.914062 C 116.441406 87.304688 116.574219 88.734375 116.625 90.167969 C 112.261719 89.3125 107.5625 91.394531 105.214844 95.164062 C 103.964844 97.164062 103.210938 99.65625 103.078125 102.011719 C 102.9375 104.503906 103.300781 106.871094 104.089844 109.234375 C 104.488281 110.429688 104.953125 111.550781 105.792969 112.511719 C 106.402344 113.210938 107.117188 113.84375 107.933594 114.277344 C 103.925781 118.59375 98.851562 121.980469 93.375 124.085938 Z M 115.003906 103.8125 C 114.425781 105.304688 113.613281 106.640625 112.746094 107.976562 C 111.800781 109.425781 110.808594 110.84375 109.730469 112.199219 C 109.441406 112.558594 109.144531 112.914062 108.84375 113.265625 C 108.03125 112.933594 107.308594 112.261719 106.761719 111.613281 C 106.136719 110.867188 105.78125 110.058594 105.460938 109.148438 C 104.714844 107.019531 104.320312 104.902344 104.371094 102.636719 C 104.457031 98.535156 106.1875 93.839844 109.964844 91.945312 C 111.957031 90.945312 114.433594 91.03125 116.617188 91.511719 C 116.628906 91.515625 116.640625 91.515625 116.652344 91.515625 C 116.65625 92.25 116.648438 92.980469 116.640625 93.707031 C 116.605469 97.128906 116.253906 100.601562 115.003906 103.8125 Z M 72.832031 92.027344 C 72.832031 92.027344 72.832031 92.03125 72.832031 92.03125 C 72.832031 92.03125 72.835938 92.03125 72.835938 92.03125 C 72.835938 92.03125 72.832031 92.027344 72.832031 92.027344 Z M 71.863281 90.394531 C 71.433594 90.46875 71.007812 90.792969 70.820312 91.179688 C 70.6875 91.460938 70.628906 91.726562 70.582031 92.027344 C 70.523438 92.414062 70.550781 92.882812 70.648438 93.261719 C 70.945312 94.382812 72.40625 94.765625 73.390625 94.246094 C 73.949219 93.957031 74.332031 93.441406 74.421875 92.816406 C 74.507812 92.222656 74.363281 91.597656 74.015625 91.113281 C 73.601562 90.539062 72.902344 90.214844 71.863281 90.394531 Z M 93.890625 87.574219 C 92.386719 87.578125 92.078125 88.226562 91.761719 88.828125 C 91.441406 89.433594 91.550781 90.152344 91.90625 90.714844 C 92.222656 91.210938 92.777344 91.578125 93.359375 91.683594 C 94 91.800781 94.613281 91.570312 95.070312 91.117188 C 95.871094 90.316406 95.902344 88.875 95.035156 88.113281 C 94.746094 87.859375 94.28125 87.574219 93.890625 87.574219 Z M 84.515625 101.523438 C 85.234375 101.375 85.800781 100.820312 86.054688 100.136719 C 86.582031 98.714844 86.1875 97.074219 85.960938 95.628906 C 85.957031 95.601562 85.949219 95.578125 85.941406 95.554688 C 85.9375 95.519531 85.941406 95.484375 85.929688 95.453125 C 85.742188 94.75 85.507812 94.046875 84.984375 93.519531 C 84.535156 93.066406 83.863281 92.800781 83.226562 92.890625 C 81.644531 93.121094 81.523438 95.238281 81.523438 96.484375 C 81.523438 97.910156 81.890625 99.570312 82.738281 100.746094 C 83.152344 101.316406 83.800781 101.667969 84.515625 101.523438 Z M 82.667969 95.695312 C 82.710938 95.285156 82.675781 94.59375 83.199219 94.347656 C 83.519531 94.195312 83.824219 94.238281 84.035156 94.4375 C 84.378906 94.765625 84.519531 95.273438 84.640625 95.734375 C 84.640625 95.738281 84.640625 95.746094 84.640625 95.753906 C 84.792969 96.703125 84.964844 97.628906 84.964844 98.597656 C 84.964844 99.03125 85.0625 99.765625 84.8125 100.140625 C 84.644531 100.394531 84.097656 100.601562 83.726562 100.097656 C 83.46875 99.742188 83.234375 99.277344 83.082031 98.882812 C 82.890625 98.363281 82.757812 97.832031 82.691406 97.28125 C 82.625 96.753906 82.613281 96.222656 82.667969 95.695312 Z M 89.820312 104.386719 C 89.503906 104.328125 89.066406 104.566406 89.050781 104.925781 C 89.007812 105.90625 88.78125 106.917969 88.179688 107.714844 C 87.503906 108.617188 86.558594 109.257812 85.472656 109.394531 C 83.480469 109.644531 80.460938 109.355469 79.90625 106.992188 C 79.824219 106.640625 79.519531 106.289062 79.21875 106.402344 C 78.84375 106.539062 78.75 106.910156 78.832031 107.257812 C 79.527344 110.207031 82.992188 110.765625 85.535156 110.445312 C 86.878906 110.277344 88.167969 109.800781 89.0625 108.738281 C 89.898438 107.746094 90.054688 106.480469 90.113281 105.199219 C 90.128906 104.839844 90.203125 104.460938 89.820312 104.386719 Z M 71.492188 82.519531 C 71.558594 82.140625 71.300781 81.84375 70.953125 81.75 C 68.824219 81.175781 66.40625 82.03125 65.074219 83.78125 C 64.558594 84.460938 65.578125 85.308594 66.09375 84.628906 C 67.179688 83.207031 69.015625 82.597656 70.726562 83.058594 C 71.070312 83.148438 71.433594 82.847656 71.492188 82.519531 Z M 97.515625 78.40625 C 96.082031 77.226562 93.9375 76.949219 92.277344 77.8125 C 91.960938 77.980469 91.753906 78.304688 91.894531 78.667969 C 92.007812 78.972656 92.429688 79.21875 92.75 79.054688 C 92.917969 78.964844 93.089844 78.886719 93.269531 78.824219 C 93.363281 78.792969 93.457031 78.765625 93.554688 78.734375 C 93.570312 78.730469 93.585938 78.726562 93.597656 78.722656 C 93.632812 78.714844 93.667969 78.707031 93.707031 78.703125 C 93.890625 78.667969 94.082031 78.644531 94.269531 78.636719 C 94.367188 78.632812 94.464844 78.632812 94.5625 78.632812 C 94.574219 78.632812 94.582031 78.632812 94.59375 78.636719 C 94.648438 78.640625 94.703125 78.644531 94.757812 78.648438 C 94.949219 78.667969 95.132812 78.703125 95.320312 78.746094 C 95.363281 78.757812 95.40625 78.769531 95.449219 78.777344 C 95.460938 78.78125 95.480469 78.789062 95.492188 78.792969 C 95.582031 78.820312 95.671875 78.851562 95.757812 78.886719 C 95.933594 78.960938 96.101562 79.046875 96.269531 79.136719 C 96.28125 79.144531 96.304688 79.15625 96.3125 79.164062 C 96.34375 79.183594 96.375 79.203125 96.40625 79.226562 C 96.496094 79.289062 96.585938 79.359375 96.671875 79.429688 C 96.949219 79.65625 97.375 79.617188 97.605469 79.339844 C 97.832031 79.0625 97.792969 78.636719 97.515625 78.40625 Z M 94.546875 78.632812 C 94.53125 78.632812 94.535156 78.632812 94.546875 78.632812 Z M 94.546875 78.632812 " fill-opacity="1" fill-rule="nonzero"/></g></g></g></svg>